<?xml version="1.0" encoding="utf-8" standalone="no"?>
<!DOCTYPE svg PUBLIC "-//W3C//DTD SVG 1.1//EN"
  "http://www.w3.org/Graphics/SVG/1.1/DTD/svg11.dtd">
<svg xmlns:xlink="http://www.w3.org/1999/xlink" width="1209.6pt" height="730.08pt" viewBox="0 0 1209.6 730.08" xmlns="http://www.w3.org/2000/svg" version="1.1">
 <metadata>
  <rdf:RDF xmlns:dc="http://purl.org/dc/elements/1.1/" xmlns:cc="http://creativecommons.org/ns#" xmlns:rdf="http://www.w3.org/1999/02/22-rdf-syntax-ns#">
   <cc:Work>
    <dc:type rdf:resource="http://purl.org/dc/dcmitype/StillImage"/>
    <dc:date>2024-10-19T23:22:07.171412</dc:date>
    <dc:format>image/svg+xml</dc:format>
    <dc:creator>
     <cc:Agent>
      <dc:title>Matplotlib v3.9.2, https://matplotlib.org/</dc:title>
     </cc:Agent>
    </dc:creator>
   </cc:Work>
  </rdf:RDF>
 </metadata>
 <defs>
  <style type="text/css">*{stroke-linejoin: round; stroke-linecap: butt}</style>
 </defs>
 <g id="figure_1">
  <g id="patch_1">
   <path d="M 0 730.08 
L 1209.6 730.08 
L 1209.6 0 
L 0 0 
z
" style="fill: #ffffff"/>
  </g>
  <g id="axes_1">
   <g id="patch_2">
    <path d="M 53.578 485.8074 
L 929.68288 485.8074 
L 929.68288 33.1578 
L 53.578 33.1578 
z
" style="fill: #ffffff"/>
   </g>
   <g id="matplotlib.axis_1">
    <g id="xtick_1">
     <g id="line2d_1">
      <defs>
       <path id="m258e7a3493" d="M 0 0 
L 0 3.5 
" style="stroke: #000000; stroke-width: 0.8"/>
      </defs>
      <g>
       <use xlink:href="#m258e7a3493" x="53.578" y="485.8074" style="stroke: #000000; stroke-width: 0.8"/>
      </g>
     </g>
     <g id="text_1">
      <!-- 1985 -->
      <g transform="translate(40.853 500.405837) scale(0.1 -0.1)">
       <defs>
        <path id="DejaVuSans-31" d="M 794 531 
L 1825 531 
L 1825 4091 
L 703 3866 
L 703 4441 
L 1819 4666 
L 2450 4666 
L 2450 531 
L 3481 531 
L 3481 0 
L 794 0 
L 794 531 
z
" transform="scale(0.015625)"/>
        <path id="DejaVuSans-39" d="M 703 97 
L 703 672 
Q 941 559 1184 500 
Q 1428 441 1663 441 
Q 2288 441 2617 861 
Q 2947 1281 2994 2138 
Q 2813 1869 2534 1725 
Q 2256 1581 1919 1581 
Q 1219 1581 811 2004 
Q 403 2428 403 3163 
Q 403 3881 828 4315 
Q 1253 4750 1959 4750 
Q 2769 4750 3195 4129 
Q 3622 3509 3622 2328 
Q 3622 1225 3098 567 
Q 2575 -91 1691 -91 
Q 1453 -91 1209 -44 
Q 966 3 703 97 
z
M 1959 2075 
Q 2384 2075 2632 2365 
Q 2881 2656 2881 3163 
Q 2881 3666 2632 3958 
Q 2384 4250 1959 4250 
Q 1534 4250 1286 3958 
Q 1038 3666 1038 3163 
Q 1038 2656 1286 2365 
Q 1534 2075 1959 2075 
z
" transform="scale(0.015625)"/>
        <path id="DejaVuSans-38" d="M 2034 2216 
Q 1584 2216 1326 1975 
Q 1069 1734 1069 1313 
Q 1069 891 1326 650 
Q 1584 409 2034 409 
Q 2484 409 2743 651 
Q 3003 894 3003 1313 
Q 3003 1734 2745 1975 
Q 2488 2216 2034 2216 
z
M 1403 2484 
Q 997 2584 770 2862 
Q 544 3141 544 3541 
Q 544 4100 942 4425 
Q 1341 4750 2034 4750 
Q 2731 4750 3128 4425 
Q 3525 4100 3525 3541 
Q 3525 3141 3298 2862 
Q 3072 2584 2669 2484 
Q 3125 2378 3379 2068 
Q 3634 1759 3634 1313 
Q 3634 634 3220 271 
Q 2806 -91 2034 -91 
Q 1263 -91 848 271 
Q 434 634 434 1313 
Q 434 1759 690 2068 
Q 947 2378 1403 2484 
z
M 1172 3481 
Q 1172 3119 1398 2916 
Q 1625 2713 2034 2713 
Q 2441 2713 2670 2916 
Q 2900 3119 2900 3481 
Q 2900 3844 2670 4047 
Q 2441 4250 2034 4250 
Q 1625 4250 1398 4047 
Q 1172 3844 1172 3481 
z
" transform="scale(0.015625)"/>
        <path id="DejaVuSans-35" d="M 691 4666 
L 3169 4666 
L 3169 4134 
L 1269 4134 
L 1269 2991 
Q 1406 3038 1543 3061 
Q 1681 3084 1819 3084 
Q 2600 3084 3056 2656 
Q 3513 2228 3513 1497 
Q 3513 744 3044 326 
Q 2575 -91 1722 -91 
Q 1428 -91 1123 -41 
Q 819 9 494 109 
L 494 744 
Q 775 591 1075 516 
Q 1375 441 1709 441 
Q 2250 441 2565 725 
Q 2881 1009 2881 1497 
Q 2881 1984 2565 2268 
Q 2250 2553 1709 2553 
Q 1456 2553 1204 2497 
Q 953 2441 691 2322 
L 691 4666 
z
" transform="scale(0.015625)"/>
       </defs>
       <use xlink:href="#DejaVuSans-31"/>
       <use xlink:href="#DejaVuSans-39" x="63.623047"/>
       <use xlink:href="#DejaVuSans-38" x="127.246094"/>
       <use xlink:href="#DejaVuSans-35" x="190.869141"/>
      </g>
     </g>
    </g>
    <g id="xtick_2">
     <g id="line2d_2">
      <g>
       <use xlink:href="#m258e7a3493" x="175.259233" y="485.8074" style="stroke: #000000; stroke-width: 0.8"/>
      </g>
     </g>
     <g id="text_2">
      <!-- 1990 -->
      <g transform="translate(162.534233 500.405837) scale(0.1 -0.1)">
       <defs>
        <path id="DejaVuSans-30" d="M 2034 4250 
Q 1547 4250 1301 3770 
Q 1056 3291 1056 2328 
Q 1056 1369 1301 889 
Q 1547 409 2034 409 
Q 2525 409 2770 889 
Q 3016 1369 3016 2328 
Q 3016 3291 2770 3770 
Q 2525 4250 2034 4250 
z
M 2034 4750 
Q 2819 4750 3233 4129 
Q 3647 3509 3647 2328 
Q 3647 1150 3233 529 
Q 2819 -91 2034 -91 
Q 1250 -91 836 529 
Q 422 1150 422 2328 
Q 422 3509 836 4129 
Q 1250 4750 2034 4750 
z
" transform="scale(0.015625)"/>
       </defs>
       <use xlink:href="#DejaVuSans-31"/>
       <use xlink:href="#DejaVuSans-39" x="63.623047"/>
       <use xlink:href="#DejaVuSans-39" x="127.246094"/>
       <use xlink:href="#DejaVuSans-30" x="190.869141"/>
      </g>
     </g>
    </g>
    <g id="xtick_3">
     <g id="line2d_3">
      <g>
       <use xlink:href="#m258e7a3493" x="296.940467" y="485.8074" style="stroke: #000000; stroke-width: 0.8"/>
      </g>
     </g>
     <g id="text_3">
      <!-- 1995 -->
      <g transform="translate(284.215467 500.405837) scale(0.1 -0.1)">
       <use xlink:href="#DejaVuSans-31"/>
       <use xlink:href="#DejaVuSans-39" x="63.623047"/>
       <use xlink:href="#DejaVuSans-39" x="127.246094"/>
       <use xlink:href="#DejaVuSans-35" x="190.869141"/>
      </g>
     </g>
    </g>
    <g id="xtick_4">
     <g id="line2d_4">
      <g>
       <use xlink:href="#m258e7a3493" x="418.6217" y="485.8074" style="stroke: #000000; stroke-width: 0.8"/>
      </g>
     </g>
     <g id="text_4">
      <!-- 2000 -->
      <g transform="translate(405.8967 500.405837) scale(0.1 -0.1)">
       <defs>
        <path id="DejaVuSans-32" d="M 1228 531 
L 3431 531 
L 3431 0 
L 469 0 
L 469 531 
Q 828 903 1448 1529 
Q 2069 2156 2228 2338 
Q 2531 2678 2651 2914 
Q 2772 3150 2772 3378 
Q 2772 3750 2511 3984 
Q 2250 4219 1831 4219 
Q 1534 4219 1204 4116 
Q 875 4013 500 3803 
L 500 4441 
Q 881 4594 1212 4672 
Q 1544 4750 1819 4750 
Q 2544 4750 2975 4387 
Q 3406 4025 3406 3419 
Q 3406 3131 3298 2873 
Q 3191 2616 2906 2266 
Q 2828 2175 2409 1742 
Q 1991 1309 1228 531 
z
" transform="scale(0.015625)"/>
       </defs>
       <use xlink:href="#DejaVuSans-32"/>
       <use xlink:href="#DejaVuSans-30" x="63.623047"/>
       <use xlink:href="#DejaVuSans-30" x="127.246094"/>
       <use xlink:href="#DejaVuSans-30" x="190.869141"/>
      </g>
     </g>
    </g>
    <g id="xtick_5">
     <g id="line2d_5">
      <g>
       <use xlink:href="#m258e7a3493" x="540.302933" y="485.8074" style="stroke: #000000; stroke-width: 0.8"/>
      </g>
     </g>
     <g id="text_5">
      <!-- 2005 -->
      <g transform="translate(527.577933 500.405837) scale(0.1 -0.1)">
       <use xlink:href="#DejaVuSans-32"/>
       <use xlink:href="#DejaVuSans-30" x="63.623047"/>
       <use xlink:href="#DejaVuSans-30" x="127.246094"/>
       <use xlink:href="#DejaVuSans-35" x="190.869141"/>
      </g>
     </g>
    </g>
    <g id="xtick_6">
     <g id="line2d_6">
      <g>
       <use xlink:href="#m258e7a3493" x="661.984167" y="485.8074" style="stroke: #000000; stroke-width: 0.8"/>
      </g>
     </g>
     <g id="text_6">
      <!-- 2010 -->
      <g transform="translate(649.259167 500.405837) scale(0.1 -0.1)">
       <use xlink:href="#DejaVuSans-32"/>
       <use xlink:href="#DejaVuSans-30" x="63.623047"/>
       <use xlink:href="#DejaVuSans-31" x="127.246094"/>
       <use xlink:href="#DejaVuSans-30" x="190.869141"/>
      </g>
     </g>
    </g>
    <g id="xtick_7">
     <g id="line2d_7">
      <g>
       <use xlink:href="#m258e7a3493" x="783.6654" y="485.8074" style="stroke: #000000; stroke-width: 0.8"/>
      </g>
     </g>
     <g id="text_7">
      <!-- 2015 -->
      <g transform="translate(770.9404 500.405837) scale(0.1 -0.1)">
       <use xlink:href="#DejaVuSans-32"/>
       <use xlink:href="#DejaVuSans-30" x="63.623047"/>
       <use xlink:href="#DejaVuSans-31" x="127.246094"/>
       <use xlink:href="#DejaVuSans-35" x="190.869141"/>
      </g>
     </g>
    </g>
    <g id="xtick_8">
     <g id="line2d_8">
      <g>
       <use xlink:href="#m258e7a3493" x="905.346633" y="485.8074" style="stroke: #000000; stroke-width: 0.8"/>
      </g>
     </g>
     <g id="text_8">
      <!-- 2020 -->
      <g transform="translate(892.621633 500.405837) scale(0.1 -0.1)">
       <use xlink:href="#DejaVuSans-32"/>
       <use xlink:href="#DejaVuSans-30" x="63.623047"/>
       <use xlink:href="#DejaVuSans-32" x="127.246094"/>
       <use xlink:href="#DejaVuSans-30" x="190.869141"/>
      </g>
     </g>
    </g>
    <g id="text_9">
     <!-- Year -->
     <g transform="translate(481.04294 514.083962) scale(0.1 -0.1)">
      <defs>
       <path id="DejaVuSans-59" d="M -13 4666 
L 666 4666 
L 1959 2747 
L 3244 4666 
L 3922 4666 
L 2272 2222 
L 2272 0 
L 1638 0 
L 1638 2222 
L -13 4666 
z
" transform="scale(0.015625)"/>
       <path id="DejaVuSans-65" d="M 3597 1894 
L 3597 1613 
L 953 1613 
Q 991 1019 1311 708 
Q 1631 397 2203 397 
Q 2534 397 2845 478 
Q 3156 559 3463 722 
L 3463 178 
Q 3153 47 2828 -22 
Q 2503 -91 2169 -91 
Q 1331 -91 842 396 
Q 353 884 353 1716 
Q 353 2575 817 3079 
Q 1281 3584 2069 3584 
Q 2775 3584 3186 3129 
Q 3597 2675 3597 1894 
z
M 3022 2063 
Q 3016 2534 2758 2815 
Q 2500 3097 2075 3097 
Q 1594 3097 1305 2825 
Q 1016 2553 972 2059 
L 3022 2063 
z
" transform="scale(0.015625)"/>
       <path id="DejaVuSans-61" d="M 2194 1759 
Q 1497 1759 1228 1600 
Q 959 1441 959 1056 
Q 959 750 1161 570 
Q 1363 391 1709 391 
Q 2188 391 2477 730 
Q 2766 1069 2766 1631 
L 2766 1759 
L 2194 1759 
z
M 3341 1997 
L 3341 0 
L 2766 0 
L 2766 531 
Q 2569 213 2275 61 
Q 1981 -91 1556 -91 
Q 1019 -91 701 211 
Q 384 513 384 1019 
Q 384 1609 779 1909 
Q 1175 2209 1959 2209 
L 2766 2209 
L 2766 2266 
Q 2766 2663 2505 2880 
Q 2244 3097 1772 3097 
Q 1472 3097 1187 3025 
Q 903 2953 641 2809 
L 641 3341 
Q 956 3463 1253 3523 
Q 1550 3584 1831 3584 
Q 2591 3584 2966 3190 
Q 3341 2797 3341 1997 
z
" transform="scale(0.015625)"/>
       <path id="DejaVuSans-72" d="M 2631 2963 
Q 2534 3019 2420 3045 
Q 2306 3072 2169 3072 
Q 1681 3072 1420 2755 
Q 1159 2438 1159 1844 
L 1159 0 
L 581 0 
L 581 3500 
L 1159 3500 
L 1159 2956 
Q 1341 3275 1631 3429 
Q 1922 3584 2338 3584 
Q 2397 3584 2469 3576 
Q 2541 3569 2628 3553 
L 2631 2963 
z
" transform="scale(0.015625)"/>
      </defs>
      <use xlink:href="#DejaVuSans-59"/>
      <use xlink:href="#DejaVuSans-65" x="47.833984"/>
      <use xlink:href="#DejaVuSans-61" x="109.357422"/>
      <use xlink:href="#DejaVuSans-72" x="170.636719"/>
     </g>
    </g>
   </g>
   <g id="matplotlib.axis_2">
    <g id="ytick_1">
     <g id="line2d_9">
      <defs>
       <path id="mac9bfac023" d="M 0 0 
L -3.5 0 
" style="stroke: #000000; stroke-width: 0.8"/>
      </defs>
      <g>
       <use xlink:href="#mac9bfac023" x="53.578" y="434.239724" style="stroke: #000000; stroke-width: 0.8"/>
      </g>
     </g>
     <g id="text_10">
      <!-- 1 -->
      <g transform="translate(40.2155 438.038943) scale(0.1 -0.1)">
       <use xlink:href="#DejaVuSans-31"/>
      </g>
     </g>
    </g>
    <g id="ytick_2">
     <g id="line2d_10">
      <g>
       <use xlink:href="#mac9bfac023" x="53.578" y="376.942306" style="stroke: #000000; stroke-width: 0.8"/>
      </g>
     </g>
     <g id="text_11">
      <!-- 2 -->
      <g transform="translate(40.2155 380.741525) scale(0.1 -0.1)">
       <use xlink:href="#DejaVuSans-32"/>
      </g>
     </g>
    </g>
    <g id="ytick_3">
     <g id="line2d_11">
      <g>
       <use xlink:href="#mac9bfac023" x="53.578" y="319.644889" style="stroke: #000000; stroke-width: 0.8"/>
      </g>
     </g>
     <g id="text_12">
      <!-- 3 -->
      <g transform="translate(40.2155 323.444107) scale(0.1 -0.1)">
       <defs>
        <path id="DejaVuSans-33" d="M 2597 2516 
Q 3050 2419 3304 2112 
Q 3559 1806 3559 1356 
Q 3559 666 3084 287 
Q 2609 -91 1734 -91 
Q 1441 -91 1130 -33 
Q 819 25 488 141 
L 488 750 
Q 750 597 1062 519 
Q 1375 441 1716 441 
Q 2309 441 2620 675 
Q 2931 909 2931 1356 
Q 2931 1769 2642 2001 
Q 2353 2234 1838 2234 
L 1294 2234 
L 1294 2753 
L 1863 2753 
Q 2328 2753 2575 2939 
Q 2822 3125 2822 3475 
Q 2822 3834 2567 4026 
Q 2313 4219 1838 4219 
Q 1578 4219 1281 4162 
Q 984 4106 628 3988 
L 628 4550 
Q 988 4650 1302 4700 
Q 1616 4750 1894 4750 
Q 2613 4750 3031 4423 
Q 3450 4097 3450 3541 
Q 3450 3153 3228 2886 
Q 3006 2619 2597 2516 
z
" transform="scale(0.015625)"/>
       </defs>
       <use xlink:href="#DejaVuSans-33"/>
      </g>
     </g>
    </g>
    <g id="ytick_4">
     <g id="line2d_12">
      <g>
       <use xlink:href="#mac9bfac023" x="53.578" y="262.347471" style="stroke: #000000; stroke-width: 0.8"/>
      </g>
     </g>
     <g id="text_13">
      <!-- 4 -->
      <g transform="translate(40.2155 266.14669) scale(0.1 -0.1)">
       <defs>
        <path id="DejaVuSans-34" d="M 2419 4116 
L 825 1625 
L 2419 1625 
L 2419 4116 
z
M 2253 4666 
L 3047 4666 
L 3047 1625 
L 3713 1625 
L 3713 1100 
L 3047 1100 
L 3047 0 
L 2419 0 
L 2419 1100 
L 313 1100 
L 313 1709 
L 2253 4666 
z
" transform="scale(0.015625)"/>
       </defs>
       <use xlink:href="#DejaVuSans-34"/>
      </g>
     </g>
    </g>
    <g id="ytick_5">
     <g id="line2d_13">
      <g>
       <use xlink:href="#mac9bfac023" x="53.578" y="205.050053" style="stroke: #000000; stroke-width: 0.8"/>
      </g>
     </g>
     <g id="text_14">
      <!-- 5 -->
      <g transform="translate(40.2155 208.849272) scale(0.1 -0.1)">
       <use xlink:href="#DejaVuSans-35"/>
      </g>
     </g>
    </g>
    <g id="ytick_6">
     <g id="line2d_14">
      <g>
       <use xlink:href="#mac9bfac023" x="53.578" y="147.752635" style="stroke: #000000; stroke-width: 0.8"/>
      </g>
     </g>
     <g id="text_15">
      <!-- 6 -->
      <g transform="translate(40.2155 151.551854) scale(0.1 -0.1)">
       <defs>
        <path id="DejaVuSans-36" d="M 2113 2584 
Q 1688 2584 1439 2293 
Q 1191 2003 1191 1497 
Q 1191 994 1439 701 
Q 1688 409 2113 409 
Q 2538 409 2786 701 
Q 3034 994 3034 1497 
Q 3034 2003 2786 2293 
Q 2538 2584 2113 2584 
z
M 3366 4563 
L 3366 3988 
Q 3128 4100 2886 4159 
Q 2644 4219 2406 4219 
Q 1781 4219 1451 3797 
Q 1122 3375 1075 2522 
Q 1259 2794 1537 2939 
Q 1816 3084 2150 3084 
Q 2853 3084 3261 2657 
Q 3669 2231 3669 1497 
Q 3669 778 3244 343 
Q 2819 -91 2113 -91 
Q 1303 -91 875 529 
Q 447 1150 447 2328 
Q 447 3434 972 4092 
Q 1497 4750 2381 4750 
Q 2619 4750 2861 4703 
Q 3103 4656 3366 4563 
z
" transform="scale(0.015625)"/>
       </defs>
       <use xlink:href="#DejaVuSans-36"/>
      </g>
     </g>
    </g>
    <g id="ytick_7">
     <g id="line2d_15">
      <g>
       <use xlink:href="#mac9bfac023" x="53.578" y="90.455218" style="stroke: #000000; stroke-width: 0.8"/>
      </g>
     </g>
     <g id="text_16">
      <!-- 7 -->
      <g transform="translate(40.2155 94.254436) scale(0.1 -0.1)">
       <defs>
        <path id="DejaVuSans-37" d="M 525 4666 
L 3525 4666 
L 3525 4397 
L 1831 0 
L 1172 0 
L 2766 4134 
L 525 4134 
L 525 4666 
z
" transform="scale(0.015625)"/>
       </defs>
       <use xlink:href="#DejaVuSans-37"/>
      </g>
     </g>
    </g>
    <g id="ytick_8">
     <g id="line2d_16">
      <g>
       <use xlink:href="#mac9bfac023" x="53.578" y="33.1578" style="stroke: #000000; stroke-width: 0.8"/>
      </g>
     </g>
     <g id="text_17">
      <!-- 8 -->
      <g transform="translate(40.2155 36.957019) scale(0.1 -0.1)">
       <use xlink:href="#DejaVuSans-38"/>
      </g>
     </g>
    </g>
    <g id="text_18">
     <!-- Value -->
     <g transform="translate(34.135813 273.21385) rotate(-90) scale(0.1 -0.1)">
      <defs>
       <path id="DejaVuSans-56" d="M 1831 0 
L 50 4666 
L 709 4666 
L 2188 738 
L 3669 4666 
L 4325 4666 
L 2547 0 
L 1831 0 
z
" transform="scale(0.015625)"/>
       <path id="DejaVuSans-6c" d="M 603 4863 
L 1178 4863 
L 1178 0 
L 603 0 
L 603 4863 
z
" transform="scale(0.015625)"/>
       <path id="DejaVuSans-75" d="M 544 1381 
L 544 3500 
L 1119 3500 
L 1119 1403 
Q 1119 906 1312 657 
Q 1506 409 1894 409 
Q 2359 409 2629 706 
Q 2900 1003 2900 1516 
L 2900 3500 
L 3475 3500 
L 3475 0 
L 2900 0 
L 2900 538 
Q 2691 219 2414 64 
Q 2138 -91 1772 -91 
Q 1169 -91 856 284 
Q 544 659 544 1381 
z
M 1991 3584 
L 1991 3584 
z
" transform="scale(0.015625)"/>
      </defs>
      <use xlink:href="#DejaVuSans-56"/>
      <use xlink:href="#DejaVuSans-61" x="60.658203"/>
      <use xlink:href="#DejaVuSans-6c" x="121.9375"/>
      <use xlink:href="#DejaVuSans-75" x="149.720703"/>
      <use xlink:href="#DejaVuSans-65" x="213.099609"/>
     </g>
    </g>
    <g id="text_19">
     <!-- 1e6 -->
     <g transform="translate(53.578 30.1578) scale(0.1 -0.1)">
      <use xlink:href="#DejaVuSans-31"/>
      <use xlink:href="#DejaVuSans-65" x="63.623047"/>
      <use xlink:href="#DejaVuSans-36" x="125.146484"/>
     </g>
    </g>
   </g>
   <g id="line2d_17">
    <path d="M 53.578 467.149968 
L 175.259233 467.149968 
L 296.940467 466.368112 
L 418.6217 463.488414 
L 540.302933 461.466778 
L 661.984167 460.774517 
L 783.6654 460.886689 
L 905.346633 461.275542 
" clip-path="url(#pe24314df4e)" style="fill: none; stroke: #f20c0c; stroke-width: 1.5; stroke-linecap: square"/>
   </g>
   <g id="line2d_18">
    <path d="M 53.578 487.00794 
L 175.259233 487.00794 
L 296.940467 486.956028 
L 418.6217 486.917861 
L 540.302933 486.232055 
L 661.984167 486.684435 
L 783.6654 487.017266 
L 905.346633 487.302241 
L 929.68288 487.094738 
" clip-path="url(#pe24314df4e)" style="fill: none; stroke: #f4563d; stroke-width: 1.5; stroke-linecap: square"/>
   </g>
   <g id="line2d_19">
    <path d="M 53.578 483.209541 
L 175.259233 483.209541 
L 296.940467 486.497491 
L 418.6217 486.88769 
L 540.302933 486.578715 
L 661.984167 486.27241 
L 783.6654 486.477352 
L 905.346633 486.383796 
L 929.68288 486.266455 
" clip-path="url(#pe24314df4e)" style="fill: none; stroke: #f24b0c; stroke-width: 1.5; stroke-linecap: square"/>
   </g>
   <g id="line2d_20">
    <path d="M 53.578 483.18063 
L 175.259233 483.18063 
L 296.940467 482.737415 
L 418.6217 483.006855 
L 540.302933 483.205046 
L 661.984167 483.879668 
L 783.6654 484.7193 
L 905.346633 485.390696 
L 929.68288 485.179894 
" clip-path="url(#pe24314df4e)" style="fill: none; stroke: #f4883d; stroke-width: 1.5; stroke-linecap: square"/>
   </g>
   <g id="line2d_21">
    <path d="M 53.578 485.026879 
L 175.259233 485.869835 
L 296.940467 487.402081 
L 418.6217 488.248989 
L 540.302933 487.963827 
L 661.984167 488.134639 
L 783.6654 488.075152 
L 905.346633 488.787747 
L 929.68288 488.447821 
" clip-path="url(#pe24314df4e)" style="fill: none; stroke: #f2890c; stroke-width: 1.5; stroke-linecap: square"/>
   </g>
   <g id="line2d_22">
    <path d="M 53.578 457.81172 
L 175.259233 457.81172 
L 296.940467 454.920064 
L 418.6217 450.313729 
L 540.302933 449.582821 
L 661.984167 451.321944 
L 783.6654 450.115792 
L 905.346633 453.790268 
L 929.68288 453.123331 
" clip-path="url(#pe24314df4e)" style="fill: none; stroke: #f4ba3d; stroke-width: 1.5; stroke-linecap: square"/>
   </g>
   <g id="line2d_23">
    <path d="M 53.578 489.734898 
L 175.259233 489.734898 
L 296.940467 490.237268 
L 418.6217 490.067254 
L 540.302933 489.825299 
L 661.984167 489.923013 
L 783.6654 490.126992 
L 905.346633 490.167343 
L 929.68288 490.136425 
" clip-path="url(#pe24314df4e)" style="fill: none; stroke: #f2c80c; stroke-width: 1.5; stroke-linecap: square"/>
   </g>
   <g id="line2d_24">
    <path d="M 53.578 491.217896 
L 175.259233 491.217896 
L 296.940467 491.137654 
L 418.6217 491.061204 
L 540.302933 491.00872 
L 661.984167 490.995345 
L 783.6654 491.059094 
L 905.346633 491.04995 
L 929.68288 491.040372 
" clip-path="url(#pe24314df4e)" style="fill: none; stroke: #f4ec3d; stroke-width: 1.5; stroke-linecap: square"/>
   </g>
   <g id="line2d_25">
    <path d="M 53.578 480.147832 
L 175.259233 480.147832 
L 296.940467 482.462838 
L 418.6217 482.877255 
L 540.302933 483.003551 
L 661.984167 483.505902 
L 783.6654 484.174054 
L 905.346633 485.058405 
L 929.68288 484.754177 
" clip-path="url(#pe24314df4e)" style="fill: none; stroke: #ddf20c; stroke-width: 1.5; stroke-linecap: square"/>
   </g>
   <g id="line2d_26">
    <path d="M 53.578 487.421987 
L 175.259233 487.421987 
L 296.940467 486.967745 
L 418.6217 487.373771 
L 540.302933 487.598049 
L 661.984167 487.76368 
L 783.6654 488.624449 
L 905.346633 488.988335 
L 929.68288 488.929217 
" clip-path="url(#pe24314df4e)" style="fill: none; stroke: #cbf43d; stroke-width: 1.5; stroke-linecap: square"/>
   </g>
   <g id="line2d_27">
    <path d="M 53.578 489.22941 
L 175.259233 489.22941 
L 296.940467 490.387531 
L 418.6217 490.53711 
L 540.302933 490.440434 
L 661.984167 490.327502 
L 783.6654 490.507359 
L 905.346633 490.883546 
L 929.68288 490.814325 
" clip-path="url(#pe24314df4e)" style="fill: none; stroke: #9ef20c; stroke-width: 1.5; stroke-linecap: square"/>
   </g>
   <g id="line2d_28">
    <path d="M 53.578 213.03998 
L 175.259233 213.03998 
L 296.940467 230.578484 
L 418.6217 236.741874 
L 540.302933 231.56178 
L 661.984167 252.217624 
L 783.6654 273.287756 
L 905.346633 302.4291 
L 929.68288 292.807117 
" clip-path="url(#pe24314df4e)" style="fill: none; stroke: #99f43d; stroke-width: 1.5; stroke-linecap: square"/>
   </g>
   <g id="line2d_29">
    <path d="M 53.578 487.463997 
L 175.259233 487.463997 
L 296.940467 487.426419 
L 418.6217 487.518495 
L 540.302933 487.543242 
L 661.984167 487.207981 
L 783.6654 488.385254 
L 905.346633 488.80083 
L 929.68288 488.798354 
" clip-path="url(#pe24314df4e)" style="fill: none; stroke: #60f20c; stroke-width: 1.5; stroke-linecap: square"/>
   </g>
   <g id="line2d_30">
    <path d="M 53.578 460.54894 
L 175.259233 460.54894 
L 296.940467 460.930456 
L 418.6217 460.097217 
L 540.302933 459.800132 
L 661.984167 462.249399 
L 783.6654 465.164075 
L 905.346633 468.71575 
L 929.68288 467.468745 
" clip-path="url(#pe24314df4e)" style="fill: none; stroke: #66f43d; stroke-width: 1.5; stroke-linecap: square"/>
   </g>
   <g id="line2d_31">
    <path d="M 53.578 419.845193 
L 175.259233 419.845193 
L 296.940467 427.326171 
L 418.6217 431.936836 
L 540.302933 435.099932 
L 661.984167 438.114225 
L 783.6654 440.160961 
L 905.346633 449.657159 
L 929.68288 447.970591 
" clip-path="url(#pe24314df4e)" style="fill: none; stroke: #21f20c; stroke-width: 1.5; stroke-linecap: square"/>
   </g>
   <g id="line2d_32">
    <path d="M 53.578 485.57903 
L 175.259233 485.57903 
L 296.940467 485.258427 
L 418.6217 484.279882 
L 540.302933 483.701826 
L 661.984167 484.709584 
L 783.6654 486.038578 
L 905.346633 487.213221 
L 929.68288 487.097232 
" clip-path="url(#pe24314df4e)" style="fill: none; stroke: #3df445; stroke-width: 1.5; stroke-linecap: square"/>
   </g>
   <g id="line2d_33">
    <path d="M 53.578 485.213037 
L 175.259233 486.094745 
L 296.940467 487.08813 
L 418.6217 487.218159 
L 540.302933 487.127826 
L 661.984167 487.724927 
L 783.6654 487.97318 
L 905.346633 487.929392 
L 929.68288 487.857625 
" clip-path="url(#pe24314df4e)" style="fill: none; stroke: #0cf236; stroke-width: 1.5; stroke-linecap: square"/>
   </g>
   <g id="line2d_34">
    <path d="M 53.578 491.32617 
L 175.259233 491.32617 
L 296.940467 491.333467 
L 418.6217 491.299115 
L 540.302933 491.304552 
L 661.984167 491.256021 
L 783.6654 491.263678 
L 905.346633 491.278097 
L 929.68288 491.270007 
" clip-path="url(#pe24314df4e)" style="fill: none; stroke: #3df477; stroke-width: 1.5; stroke-linecap: square"/>
   </g>
   <g id="line2d_35">
    <path d="M 53.578 488.348951 
L 175.259233 488.348951 
L 296.940467 488.094675 
L 418.6217 487.542802 
L 540.302933 487.438573 
L 661.984167 487.925562 
L 783.6654 488.000514 
L 905.346633 488.153368 
L 929.68288 487.978407 
" clip-path="url(#pe24314df4e)" style="fill: none; stroke: #0cf275; stroke-width: 1.5; stroke-linecap: square"/>
   </g>
   <g id="line2d_36">
    <path d="M 53.578 461.657665 
L 175.259233 461.657665 
L 296.940467 460.845567 
L 418.6217 459.45184 
L 540.302933 457.491166 
L 661.984167 461.543909 
L 783.6654 465.99764 
L 905.346633 469.479362 
L 929.68288 467.610231 
" clip-path="url(#pe24314df4e)" style="fill: none; stroke: #3df4a9; stroke-width: 1.5; stroke-linecap: square"/>
   </g>
   <g id="line2d_37">
    <path d="M 53.578 418.80758 
L 175.259233 418.80758 
L 296.940467 412.820904 
L 418.6217 412.850402 
L 540.302933 412.612018 
L 661.984167 417.04782 
L 783.6654 416.028531 
L 905.346633 425.935466 
L 929.68288 424.608345 
" clip-path="url(#pe24314df4e)" style="fill: none; stroke: #0cf2b3; stroke-width: 1.5; stroke-linecap: square"/>
   </g>
   <g id="line2d_38">
    <path d="M 53.578 469.381216 
L 175.259233 469.381216 
L 296.940467 476.607286 
L 418.6217 476.614939 
L 540.302933 475.06606 
L 661.984167 473.439437 
L 783.6654 471.664844 
L 905.346633 472.401468 
L 929.68288 472.163546 
" clip-path="url(#pe24314df4e)" style="fill: none; stroke: #3df4db; stroke-width: 1.5; stroke-linecap: square"/>
   </g>
   <g id="line2d_39">
    <path d="M 53.578 490.046108 
L 175.259233 490.046108 
L 296.940467 490.815777 
L 418.6217 490.954554 
L 540.302933 490.905703 
L 661.984167 490.857716 
L 783.6654 490.921493 
L 905.346633 490.936485 
L 929.68288 490.92261 
" clip-path="url(#pe24314df4e)" style="fill: none; stroke: #0cf2f2; stroke-width: 1.5; stroke-linecap: square"/>
   </g>
   <g id="line2d_40">
    <path d="M 53.578 491.523984 
L 175.259233 491.523984 
L 296.940467 491.523711 
L 418.6217 491.522953 
L 540.302933 491.521985 
L 661.984167 491.52403 
L 783.6654 491.52576 
L 905.346633 491.526778 
L 929.68288 491.526605 
" clip-path="url(#pe24314df4e)" style="fill: none; stroke: #3ddbf4; stroke-width: 1.5; stroke-linecap: square"/>
   </g>
   <g id="line2d_41">
    <path d="M 53.578 488.779157 
L 175.259233 488.779157 
L 296.940467 490.24875 
L 418.6217 490.420206 
L 540.302933 490.251399 
L 661.984167 490.348692 
L 783.6654 490.382309 
L 905.346633 490.381698 
L 929.68288 490.376783 
" clip-path="url(#pe24314df4e)" style="fill: none; stroke: #0cb3f2; stroke-width: 1.5; stroke-linecap: square"/>
   </g>
   <g id="line2d_42">
    <path d="M 53.578 490.808181 
L 175.259233 490.808181 
L 296.940467 490.959669 
L 418.6217 490.985081 
L 540.302933 490.792629 
L 661.984167 490.84046 
L 783.6654 490.946184 
L 905.346633 491.019752 
L 929.68288 490.999077 
" clip-path="url(#pe24314df4e)" style="fill: none; stroke: #3da9f4; stroke-width: 1.5; stroke-linecap: square"/>
   </g>
   <g id="line2d_43">
    <path d="M 53.578 491.386654 
L 175.259233 491.386654 
L 296.940467 491.382951 
L 418.6217 491.37959 
L 540.302933 491.365384 
L 661.984167 491.367408 
L 783.6654 491.415146 
L 905.346633 491.416138 
L 929.68288 491.414891 
" clip-path="url(#pe24314df4e)" style="fill: none; stroke: #0c75f2; stroke-width: 1.5; stroke-linecap: square"/>
   </g>
   <g id="line2d_44">
    <path d="M 53.578 491.531271 
L 175.259233 491.531271 
L 296.940467 491.5311 
L 418.6217 491.531052 
L 540.302933 491.531542 
L 661.984167 491.532113 
L 783.6654 491.532088 
L 905.346633 491.533145 
L 929.68288 491.532923 
" clip-path="url(#pe24314df4e)" style="fill: none; stroke: #3d77f4; stroke-width: 1.5; stroke-linecap: square"/>
   </g>
   <g id="line2d_45">
    <path d="M 53.578 478.829661 
L 175.259233 478.829661 
L 296.940467 478.28393 
L 418.6217 478.962942 
L 540.302933 479.23728 
L 661.984167 479.261936 
L 783.6654 480.420531 
L 905.346633 482.119292 
L 929.68288 481.959692 
" clip-path="url(#pe24314df4e)" style="fill: none; stroke: #0c36f2; stroke-width: 1.5; stroke-linecap: square"/>
   </g>
   <g id="line2d_46">
    <path d="M 53.578 487.828849 
L 175.259233 487.828849 
L 296.940467 487.618302 
L 418.6217 487.248403 
L 540.302933 486.852953 
L 661.984167 487.106446 
L 783.6654 487.008526 
L 905.346633 487.106295 
L 929.68288 487.135291 
" clip-path="url(#pe24314df4e)" style="fill: none; stroke: #3d45f4; stroke-width: 1.5; stroke-linecap: square"/>
   </g>
   <g id="line2d_47">
    <path d="M 53.578 488.631449 
L 175.259233 488.631449 
L 296.940467 488.624458 
L 418.6217 488.438832 
L 540.302933 488.416053 
L 661.984167 488.390078 
L 783.6654 488.422293 
L 905.346633 488.71727 
L 929.68288 488.735186 
" clip-path="url(#pe24314df4e)" style="fill: none; stroke: #210cf2; stroke-width: 1.5; stroke-linecap: square"/>
   </g>
   <g id="line2d_48">
    <path d="M 53.578 458.438431 
L 175.259233 464.346405 
L 296.940467 465.940559 
L 418.6217 468.962376 
L 540.302933 468.577569 
L 661.984167 468.203516 
L 783.6654 469.569579 
L 905.346633 470.261898 
L 929.68288 468.650348 
" clip-path="url(#pe24314df4e)" style="fill: none; stroke: #663df4; stroke-width: 1.5; stroke-linecap: square"/>
   </g>
   <g id="line2d_49">
    <path d="M 53.578 488.129472 
L 175.259233 488.129472 
L 296.940467 487.566067 
L 418.6217 486.814687 
L 540.302933 486.581533 
L 661.984167 487.55326 
L 783.6654 487.630682 
L 905.346633 488.21221 
L 929.68288 488.307893 
" clip-path="url(#pe24314df4e)" style="fill: none; stroke: #600cf2; stroke-width: 1.5; stroke-linecap: square"/>
   </g>
   <g id="line2d_50">
    <path d="M 53.578 473.759013 
L 175.259233 476.803845 
L 296.940467 480.722723 
L 418.6217 483.387254 
L 540.302933 482.86649 
L 661.984167 484.279283 
L 783.6654 484.827625 
L 905.346633 485.117766 
L 929.68288 484.924839 
" clip-path="url(#pe24314df4e)" style="fill: none; stroke: #993df4; stroke-width: 1.5; stroke-linecap: square"/>
   </g>
   <g id="line2d_51">
    <path d="M 53.578 310.100339 
L 175.259233 310.100339 
L 296.940467 372.890721 
L 418.6217 382.958456 
L 540.302933 378.626696 
L 661.984167 375.831113 
L 783.6654 375.032299 
L 905.346633 373.440869 
L 929.68288 367.969569 
" clip-path="url(#pe24314df4e)" style="fill: none; stroke: #9e0cf2; stroke-width: 1.5; stroke-linecap: square"/>
   </g>
   <g id="line2d_52">
    <path d="M 53.578 487.312106 
L 175.259233 487.312106 
L 296.940467 488.490067 
L 418.6217 488.730358 
L 540.302933 488.634093 
L 661.984167 488.914832 
L 783.6654 489.19542 
L 905.346633 489.406372 
L 929.68288 489.17497 
" clip-path="url(#pe24314df4e)" style="fill: none; stroke: #cb3df4; stroke-width: 1.5; stroke-linecap: square"/>
   </g>
   <g id="line2d_53">
    <path d="M 53.578 490.354955 
L 175.259233 490.460085 
L 296.940467 490.456326 
L 418.6217 490.461705 
L 540.302933 490.354335 
L 661.984167 490.402772 
L 783.6654 490.568101 
L 905.346633 490.621828 
L 929.68288 490.614282 
" clip-path="url(#pe24314df4e)" style="fill: none; stroke: #dd0cf2; stroke-width: 1.5; stroke-linecap: square"/>
   </g>
   <g id="line2d_54">
    <path d="M 53.578 475.052086 
L 175.259233 475.052086 
L 296.940467 472.800253 
L 418.6217 469.576396 
L 540.302933 466.397348 
L 661.984167 471.216482 
L 783.6654 472.421382 
L 905.346633 475.938243 
L 929.68288 474.986908 
" clip-path="url(#pe24314df4e)" style="fill: none; stroke: #f43dec; stroke-width: 1.5; stroke-linecap: square"/>
   </g>
   <g id="line2d_55">
    <path d="M 53.578 487.441619 
L 175.259233 487.441619 
L 296.940467 487.335742 
L 418.6217 487.620914 
L 540.302933 487.724518 
L 661.984167 487.848583 
L 783.6654 488.468451 
L 905.346633 488.889197 
L 929.68288 488.797368 
" clip-path="url(#pe24314df4e)" style="fill: none; stroke: #f20cc8; stroke-width: 1.5; stroke-linecap: square"/>
   </g>
   <g id="line2d_56">
    <path d="M 53.578 488.389572 
L 175.259233 488.389572 
L 296.940467 488.453485 
L 418.6217 488.452287 
L 540.302933 488.323338 
L 661.984167 488.368202 
L 783.6654 488.735099 
L 905.346633 489.028103 
L 929.68288 488.950982 
" clip-path="url(#pe24314df4e)" style="fill: none; stroke: #f43dba; stroke-width: 1.5; stroke-linecap: square"/>
   </g>
   <g id="line2d_57">
    <path d="M 53.578 478.95886 
L 175.259233 478.95886 
L 296.940467 477.31312 
L 418.6217 474.409984 
L 540.302933 472.194966 
L 661.984167 468.687323 
L 783.6654 464.322729 
L 905.346633 461.513821 
L 929.68288 459.199067 
" clip-path="url(#pe24314df4e)" style="fill: none; stroke: #f20c89; stroke-width: 1.5; stroke-linecap: square"/>
   </g>
   <g id="line2d_58">
    <path d="M 53.578 437.517109 
L 175.259233 437.517109 
L 296.940467 459.329829 
L 418.6217 467.018589 
L 540.302933 466.188649 
L 661.984167 468.197282 
L 783.6654 473.249721 
L 905.346633 473.31456 
L 929.68288 472.786059 
" clip-path="url(#pe24314df4e)" style="fill: none; stroke: #f43d88; stroke-width: 1.5; stroke-linecap: square"/>
   </g>
   <g id="line2d_59">
    <path d="M 53.578 445.338128 
L 175.259233 445.338128 
L 296.940467 448.126084 
L 418.6217 450.058419 
L 540.302933 451.452132 
L 661.984167 456.257713 
L 783.6654 462.093134 
L 905.346633 468.104499 
L 929.68288 466.928504 
" clip-path="url(#pe24314df4e)" style="fill: none; stroke: #f20c4b; stroke-width: 1.5; stroke-linecap: square"/>
   </g>
   <g id="line2d_60">
    <path d="M 53.578 119.82983 
L 175.259233 119.82983 
L 296.940467 100.657956 
L 418.6217 69.303133 
L 540.302933 63.103816 
L 661.984167 87.120628 
L 783.6654 105.503889 
L 905.346633 146.264415 
L 929.68288 128.258433 
" clip-path="url(#pe24314df4e)" style="fill: none; stroke: #f43d56; stroke-width: 1.5; stroke-linecap: square"/>
   </g>
   <g id="patch_3">
    <path d="M 53.578 485.8074 
L 53.578 33.1578 
" style="fill: none; stroke: #000000; stroke-width: 0.8; stroke-linejoin: miter; stroke-linecap: square"/>
   </g>
   <g id="patch_4">
    <path d="M 929.68288 485.8074 
L 929.68288 33.1578 
" style="fill: none; stroke: #000000; stroke-width: 0.8; stroke-linejoin: miter; stroke-linecap: square"/>
   </g>
   <g id="patch_5">
    <path d="M 53.578 485.8074 
L 929.68288 485.8074 
" style="fill: none; stroke: #000000; stroke-width: 0.8; stroke-linejoin: miter; stroke-linecap: square"/>
   </g>
   <g id="patch_6">
    <path d="M 53.578 33.1578 
L 929.68288 33.1578 
" style="fill: none; stroke: #000000; stroke-width: 0.8; stroke-linejoin: miter; stroke-linecap: square"/>
   </g>
   <g id="text_20">
    <!-- The Total of GHG in Party Data Over Years -->
    <g transform="translate(366.157315 27.1578) scale(0.12 -0.12)">
     <defs>
      <path id="DejaVuSans-54" d="M -19 4666 
L 3928 4666 
L 3928 4134 
L 2272 4134 
L 2272 0 
L 1638 0 
L 1638 4134 
L -19 4134 
L -19 4666 
z
" transform="scale(0.015625)"/>
      <path id="DejaVuSans-68" d="M 3513 2113 
L 3513 0 
L 2938 0 
L 2938 2094 
Q 2938 2591 2744 2837 
Q 2550 3084 2163 3084 
Q 1697 3084 1428 2787 
Q 1159 2491 1159 1978 
L 1159 0 
L 581 0 
L 581 4863 
L 1159 4863 
L 1159 2956 
Q 1366 3272 1645 3428 
Q 1925 3584 2291 3584 
Q 2894 3584 3203 3211 
Q 3513 2838 3513 2113 
z
" transform="scale(0.015625)"/>
      <path id="DejaVuSans-20" transform="scale(0.015625)"/>
      <path id="DejaVuSans-6f" d="M 1959 3097 
Q 1497 3097 1228 2736 
Q 959 2375 959 1747 
Q 959 1119 1226 758 
Q 1494 397 1959 397 
Q 2419 397 2687 759 
Q 2956 1122 2956 1747 
Q 2956 2369 2687 2733 
Q 2419 3097 1959 3097 
z
M 1959 3584 
Q 2709 3584 3137 3096 
Q 3566 2609 3566 1747 
Q 3566 888 3137 398 
Q 2709 -91 1959 -91 
Q 1206 -91 779 398 
Q 353 888 353 1747 
Q 353 2609 779 3096 
Q 1206 3584 1959 3584 
z
" transform="scale(0.015625)"/>
      <path id="DejaVuSans-74" d="M 1172 4494 
L 1172 3500 
L 2356 3500 
L 2356 3053 
L 1172 3053 
L 1172 1153 
Q 1172 725 1289 603 
Q 1406 481 1766 481 
L 2356 481 
L 2356 0 
L 1766 0 
Q 1100 0 847 248 
Q 594 497 594 1153 
L 594 3053 
L 172 3053 
L 172 3500 
L 594 3500 
L 594 4494 
L 1172 4494 
z
" transform="scale(0.015625)"/>
      <path id="DejaVuSans-66" d="M 2375 4863 
L 2375 4384 
L 1825 4384 
Q 1516 4384 1395 4259 
Q 1275 4134 1275 3809 
L 1275 3500 
L 2222 3500 
L 2222 3053 
L 1275 3053 
L 1275 0 
L 697 0 
L 697 3053 
L 147 3053 
L 147 3500 
L 697 3500 
L 697 3744 
Q 697 4328 969 4595 
Q 1241 4863 1831 4863 
L 2375 4863 
z
" transform="scale(0.015625)"/>
      <path id="DejaVuSans-47" d="M 3809 666 
L 3809 1919 
L 2778 1919 
L 2778 2438 
L 4434 2438 
L 4434 434 
Q 4069 175 3628 42 
Q 3188 -91 2688 -91 
Q 1594 -91 976 548 
Q 359 1188 359 2328 
Q 359 3472 976 4111 
Q 1594 4750 2688 4750 
Q 3144 4750 3555 4637 
Q 3966 4525 4313 4306 
L 4313 3634 
Q 3963 3931 3569 4081 
Q 3175 4231 2741 4231 
Q 1884 4231 1454 3753 
Q 1025 3275 1025 2328 
Q 1025 1384 1454 906 
Q 1884 428 2741 428 
Q 3075 428 3337 486 
Q 3600 544 3809 666 
z
" transform="scale(0.015625)"/>
      <path id="DejaVuSans-48" d="M 628 4666 
L 1259 4666 
L 1259 2753 
L 3553 2753 
L 3553 4666 
L 4184 4666 
L 4184 0 
L 3553 0 
L 3553 2222 
L 1259 2222 
L 1259 0 
L 628 0 
L 628 4666 
z
" transform="scale(0.015625)"/>
      <path id="DejaVuSans-69" d="M 603 3500 
L 1178 3500 
L 1178 0 
L 603 0 
L 603 3500 
z
M 603 4863 
L 1178 4863 
L 1178 4134 
L 603 4134 
L 603 4863 
z
" transform="scale(0.015625)"/>
      <path id="DejaVuSans-6e" d="M 3513 2113 
L 3513 0 
L 2938 0 
L 2938 2094 
Q 2938 2591 2744 2837 
Q 2550 3084 2163 3084 
Q 1697 3084 1428 2787 
Q 1159 2491 1159 1978 
L 1159 0 
L 581 0 
L 581 3500 
L 1159 3500 
L 1159 2956 
Q 1366 3272 1645 3428 
Q 1925 3584 2291 3584 
Q 2894 3584 3203 3211 
Q 3513 2838 3513 2113 
z
" transform="scale(0.015625)"/>
      <path id="DejaVuSans-50" d="M 1259 4147 
L 1259 2394 
L 2053 2394 
Q 2494 2394 2734 2622 
Q 2975 2850 2975 3272 
Q 2975 3691 2734 3919 
Q 2494 4147 2053 4147 
L 1259 4147 
z
M 628 4666 
L 2053 4666 
Q 2838 4666 3239 4311 
Q 3641 3956 3641 3272 
Q 3641 2581 3239 2228 
Q 2838 1875 2053 1875 
L 1259 1875 
L 1259 0 
L 628 0 
L 628 4666 
z
" transform="scale(0.015625)"/>
      <path id="DejaVuSans-79" d="M 2059 -325 
Q 1816 -950 1584 -1140 
Q 1353 -1331 966 -1331 
L 506 -1331 
L 506 -850 
L 844 -850 
Q 1081 -850 1212 -737 
Q 1344 -625 1503 -206 
L 1606 56 
L 191 3500 
L 800 3500 
L 1894 763 
L 2988 3500 
L 3597 3500 
L 2059 -325 
z
" transform="scale(0.015625)"/>
      <path id="DejaVuSans-44" d="M 1259 4147 
L 1259 519 
L 2022 519 
Q 2988 519 3436 956 
Q 3884 1394 3884 2338 
Q 3884 3275 3436 3711 
Q 2988 4147 2022 4147 
L 1259 4147 
z
M 628 4666 
L 1925 4666 
Q 3281 4666 3915 4102 
Q 4550 3538 4550 2338 
Q 4550 1131 3912 565 
Q 3275 0 1925 0 
L 628 0 
L 628 4666 
z
" transform="scale(0.015625)"/>
      <path id="DejaVuSans-4f" d="M 2522 4238 
Q 1834 4238 1429 3725 
Q 1025 3213 1025 2328 
Q 1025 1447 1429 934 
Q 1834 422 2522 422 
Q 3209 422 3611 934 
Q 4013 1447 4013 2328 
Q 4013 3213 3611 3725 
Q 3209 4238 2522 4238 
z
M 2522 4750 
Q 3503 4750 4090 4092 
Q 4678 3434 4678 2328 
Q 4678 1225 4090 567 
Q 3503 -91 2522 -91 
Q 1538 -91 948 565 
Q 359 1222 359 2328 
Q 359 3434 948 4092 
Q 1538 4750 2522 4750 
z
" transform="scale(0.015625)"/>
      <path id="DejaVuSans-76" d="M 191 3500 
L 800 3500 
L 1894 563 
L 2988 3500 
L 3597 3500 
L 2284 0 
L 1503 0 
L 191 3500 
z
" transform="scale(0.015625)"/>
      <path id="DejaVuSans-73" d="M 2834 3397 
L 2834 2853 
Q 2591 2978 2328 3040 
Q 2066 3103 1784 3103 
Q 1356 3103 1142 2972 
Q 928 2841 928 2578 
Q 928 2378 1081 2264 
Q 1234 2150 1697 2047 
L 1894 2003 
Q 2506 1872 2764 1633 
Q 3022 1394 3022 966 
Q 3022 478 2636 193 
Q 2250 -91 1575 -91 
Q 1294 -91 989 -36 
Q 684 19 347 128 
L 347 722 
Q 666 556 975 473 
Q 1284 391 1588 391 
Q 1994 391 2212 530 
Q 2431 669 2431 922 
Q 2431 1156 2273 1281 
Q 2116 1406 1581 1522 
L 1381 1569 
Q 847 1681 609 1914 
Q 372 2147 372 2553 
Q 372 3047 722 3315 
Q 1072 3584 1716 3584 
Q 2034 3584 2315 3537 
Q 2597 3491 2834 3397 
z
" transform="scale(0.015625)"/>
     </defs>
     <use xlink:href="#DejaVuSans-54"/>
     <use xlink:href="#DejaVuSans-68" x="61.083984"/>
     <use xlink:href="#DejaVuSans-65" x="124.462891"/>
     <use xlink:href="#DejaVuSans-20" x="185.986328"/>
     <use xlink:href="#DejaVuSans-54" x="217.773438"/>
     <use xlink:href="#DejaVuSans-6f" x="261.857422"/>
     <use xlink:href="#DejaVuSans-74" x="323.039062"/>
     <use xlink:href="#DejaVuSans-61" x="362.248047"/>
     <use xlink:href="#DejaVuSans-6c" x="423.527344"/>
     <use xlink:href="#DejaVuSans-20" x="451.310547"/>
     <use xlink:href="#DejaVuSans-6f" x="483.097656"/>
     <use xlink:href="#DejaVuSans-66" x="544.279297"/>
     <use xlink:href="#DejaVuSans-20" x="579.484375"/>
     <use xlink:href="#DejaVuSans-47" x="611.271484"/>
     <use xlink:href="#DejaVuSans-48" x="688.761719"/>
     <use xlink:href="#DejaVuSans-47" x="763.957031"/>
     <use xlink:href="#DejaVuSans-20" x="841.447266"/>
     <use xlink:href="#DejaVuSans-69" x="873.234375"/>
     <use xlink:href="#DejaVuSans-6e" x="901.017578"/>
     <use xlink:href="#DejaVuSans-20" x="964.396484"/>
     <use xlink:href="#DejaVuSans-50" x="996.183594"/>
     <use xlink:href="#DejaVuSans-61" x="1051.986328"/>
     <use xlink:href="#DejaVuSans-72" x="1113.265625"/>
     <use xlink:href="#DejaVuSans-74" x="1154.378906"/>
     <use xlink:href="#DejaVuSans-79" x="1193.587891"/>
     <use xlink:href="#DejaVuSans-20" x="1252.767578"/>
     <use xlink:href="#DejaVuSans-44" x="1284.554688"/>
     <use xlink:href="#DejaVuSans-61" x="1361.556641"/>
     <use xlink:href="#DejaVuSans-74" x="1422.835938"/>
     <use xlink:href="#DejaVuSans-61" x="1462.044922"/>
     <use xlink:href="#DejaVuSans-20" x="1523.324219"/>
     <use xlink:href="#DejaVuSans-4f" x="1555.111328"/>
     <use xlink:href="#DejaVuSans-76" x="1633.822266"/>
     <use xlink:href="#DejaVuSans-65" x="1693.001953"/>
     <use xlink:href="#DejaVuSans-72" x="1754.525391"/>
     <use xlink:href="#DejaVuSans-20" x="1795.638672"/>
     <use xlink:href="#DejaVuSans-59" x="1827.425781"/>
     <use xlink:href="#DejaVuSans-65" x="1875.259766"/>
     <use xlink:href="#DejaVuSans-61" x="1936.783203"/>
     <use xlink:href="#DejaVuSans-72" x="1998.0625"/>
     <use xlink:href="#DejaVuSans-73" x="2039.175781"/>
    </g>
   </g>
   <g id="legend_1">
    <g id="patch_7">
     <path d="M 929.807088 686.9953 
L 1229.319588 686.9953 
Q 1231.319588 686.9953 1231.319588 684.9953 
L 1231.319588 40.1578 
Q 1231.319588 38.1578 1229.319588 38.1578 
L 929.807088 38.1578 
Q 927.807088 38.1578 927.807088 40.1578 
L 927.807088 684.9953 
Q 927.807088 686.9953 929.807088 686.9953 
z
" style="fill: #ffffff; opacity: 0.8; stroke: #cccccc; stroke-linejoin: miter"/>
    </g>
    <g id="line2d_61">
     <path d="M 931.807088 46.256237 
L 941.807088 46.256237 
L 951.807088 46.256237 
" style="fill: none; stroke: #f20c0c; stroke-width: 1.5; stroke-linecap: square"/>
    </g>
    <g id="text_21">
     <!-- Australia -->
     <g transform="translate(959.807088 49.756237) scale(0.1 -0.1)">
      <defs>
       <path id="DejaVuSans-41" d="M 2188 4044 
L 1331 1722 
L 3047 1722 
L 2188 4044 
z
M 1831 4666 
L 2547 4666 
L 4325 0 
L 3669 0 
L 3244 1197 
L 1141 1197 
L 716 0 
L 50 0 
L 1831 4666 
z
" transform="scale(0.015625)"/>
      </defs>
      <use xlink:href="#DejaVuSans-41"/>
      <use xlink:href="#DejaVuSans-75" x="68.408203"/>
      <use xlink:href="#DejaVuSans-73" x="131.787109"/>
      <use xlink:href="#DejaVuSans-74" x="183.886719"/>
      <use xlink:href="#DejaVuSans-72" x="223.095703"/>
      <use xlink:href="#DejaVuSans-61" x="264.208984"/>
      <use xlink:href="#DejaVuSans-6c" x="325.488281"/>
      <use xlink:href="#DejaVuSans-69" x="353.271484"/>
      <use xlink:href="#DejaVuSans-61" x="381.054688"/>
     </g>
    </g>
    <g id="line2d_62">
     <path d="M 931.807088 60.934362 
L 941.807088 60.934362 
L 951.807088 60.934362 
" style="fill: none; stroke: #f4563d; stroke-width: 1.5; stroke-linecap: square"/>
    </g>
    <g id="text_22">
     <!-- Austria -->
     <g transform="translate(959.807088 64.434362) scale(0.1 -0.1)">
      <use xlink:href="#DejaVuSans-41"/>
      <use xlink:href="#DejaVuSans-75" x="68.408203"/>
      <use xlink:href="#DejaVuSans-73" x="131.787109"/>
      <use xlink:href="#DejaVuSans-74" x="183.886719"/>
      <use xlink:href="#DejaVuSans-72" x="223.095703"/>
      <use xlink:href="#DejaVuSans-69" x="264.208984"/>
      <use xlink:href="#DejaVuSans-61" x="291.992188"/>
     </g>
    </g>
    <g id="line2d_63">
     <path d="M 931.807088 75.612487 
L 941.807088 75.612487 
L 951.807088 75.612487 
" style="fill: none; stroke: #f24b0c; stroke-width: 1.5; stroke-linecap: square"/>
    </g>
    <g id="text_23">
     <!-- Belarus -->
     <g transform="translate(959.807088 79.112487) scale(0.1 -0.1)">
      <defs>
       <path id="DejaVuSans-42" d="M 1259 2228 
L 1259 519 
L 2272 519 
Q 2781 519 3026 730 
Q 3272 941 3272 1375 
Q 3272 1813 3026 2020 
Q 2781 2228 2272 2228 
L 1259 2228 
z
M 1259 4147 
L 1259 2741 
L 2194 2741 
Q 2656 2741 2882 2914 
Q 3109 3088 3109 3444 
Q 3109 3797 2882 3972 
Q 2656 4147 2194 4147 
L 1259 4147 
z
M 628 4666 
L 2241 4666 
Q 2963 4666 3353 4366 
Q 3744 4066 3744 3513 
Q 3744 3084 3544 2831 
Q 3344 2578 2956 2516 
Q 3422 2416 3680 2098 
Q 3938 1781 3938 1306 
Q 3938 681 3513 340 
Q 3088 0 2303 0 
L 628 0 
L 628 4666 
z
" transform="scale(0.015625)"/>
      </defs>
      <use xlink:href="#DejaVuSans-42"/>
      <use xlink:href="#DejaVuSans-65" x="68.603516"/>
      <use xlink:href="#DejaVuSans-6c" x="130.126953"/>
      <use xlink:href="#DejaVuSans-61" x="157.910156"/>
      <use xlink:href="#DejaVuSans-72" x="219.189453"/>
      <use xlink:href="#DejaVuSans-75" x="260.302734"/>
      <use xlink:href="#DejaVuSans-73" x="323.681641"/>
     </g>
    </g>
    <g id="line2d_64">
     <path d="M 931.807088 90.290612 
L 941.807088 90.290612 
L 951.807088 90.290612 
" style="fill: none; stroke: #f4883d; stroke-width: 1.5; stroke-linecap: square"/>
    </g>
    <g id="text_24">
     <!-- Belgium -->
     <g transform="translate(959.807088 93.790612) scale(0.1 -0.1)">
      <defs>
       <path id="DejaVuSans-67" d="M 2906 1791 
Q 2906 2416 2648 2759 
Q 2391 3103 1925 3103 
Q 1463 3103 1205 2759 
Q 947 2416 947 1791 
Q 947 1169 1205 825 
Q 1463 481 1925 481 
Q 2391 481 2648 825 
Q 2906 1169 2906 1791 
z
M 3481 434 
Q 3481 -459 3084 -895 
Q 2688 -1331 1869 -1331 
Q 1566 -1331 1297 -1286 
Q 1028 -1241 775 -1147 
L 775 -588 
Q 1028 -725 1275 -790 
Q 1522 -856 1778 -856 
Q 2344 -856 2625 -561 
Q 2906 -266 2906 331 
L 2906 616 
Q 2728 306 2450 153 
Q 2172 0 1784 0 
Q 1141 0 747 490 
Q 353 981 353 1791 
Q 353 2603 747 3093 
Q 1141 3584 1784 3584 
Q 2172 3584 2450 3431 
Q 2728 3278 2906 2969 
L 2906 3500 
L 3481 3500 
L 3481 434 
z
" transform="scale(0.015625)"/>
       <path id="DejaVuSans-6d" d="M 3328 2828 
Q 3544 3216 3844 3400 
Q 4144 3584 4550 3584 
Q 5097 3584 5394 3201 
Q 5691 2819 5691 2113 
L 5691 0 
L 5113 0 
L 5113 2094 
Q 5113 2597 4934 2840 
Q 4756 3084 4391 3084 
Q 3944 3084 3684 2787 
Q 3425 2491 3425 1978 
L 3425 0 
L 2847 0 
L 2847 2094 
Q 2847 2600 2669 2842 
Q 2491 3084 2119 3084 
Q 1678 3084 1418 2786 
Q 1159 2488 1159 1978 
L 1159 0 
L 581 0 
L 581 3500 
L 1159 3500 
L 1159 2956 
Q 1356 3278 1631 3431 
Q 1906 3584 2284 3584 
Q 2666 3584 2933 3390 
Q 3200 3197 3328 2828 
z
" transform="scale(0.015625)"/>
      </defs>
      <use xlink:href="#DejaVuSans-42"/>
      <use xlink:href="#DejaVuSans-65" x="68.603516"/>
      <use xlink:href="#DejaVuSans-6c" x="130.126953"/>
      <use xlink:href="#DejaVuSans-67" x="157.910156"/>
      <use xlink:href="#DejaVuSans-69" x="221.386719"/>
      <use xlink:href="#DejaVuSans-75" x="249.169922"/>
      <use xlink:href="#DejaVuSans-6d" x="312.548828"/>
     </g>
    </g>
    <g id="line2d_65">
     <path d="M 931.807088 104.968737 
L 941.807088 104.968737 
L 951.807088 104.968737 
" style="fill: none; stroke: #f2890c; stroke-width: 1.5; stroke-linecap: square"/>
    </g>
    <g id="text_25">
     <!-- Bulgaria -->
     <g transform="translate(959.807088 108.468737) scale(0.1 -0.1)">
      <use xlink:href="#DejaVuSans-42"/>
      <use xlink:href="#DejaVuSans-75" x="68.603516"/>
      <use xlink:href="#DejaVuSans-6c" x="131.982422"/>
      <use xlink:href="#DejaVuSans-67" x="159.765625"/>
      <use xlink:href="#DejaVuSans-61" x="223.242188"/>
      <use xlink:href="#DejaVuSans-72" x="284.521484"/>
      <use xlink:href="#DejaVuSans-69" x="325.634766"/>
      <use xlink:href="#DejaVuSans-61" x="353.417969"/>
     </g>
    </g>
    <g id="line2d_66">
     <path d="M 931.807088 119.646862 
L 941.807088 119.646862 
L 951.807088 119.646862 
" style="fill: none; stroke: #f4ba3d; stroke-width: 1.5; stroke-linecap: square"/>
    </g>
    <g id="text_26">
     <!-- Canada -->
     <g transform="translate(959.807088 123.146862) scale(0.1 -0.1)">
      <defs>
       <path id="DejaVuSans-43" d="M 4122 4306 
L 4122 3641 
Q 3803 3938 3442 4084 
Q 3081 4231 2675 4231 
Q 1875 4231 1450 3742 
Q 1025 3253 1025 2328 
Q 1025 1406 1450 917 
Q 1875 428 2675 428 
Q 3081 428 3442 575 
Q 3803 722 4122 1019 
L 4122 359 
Q 3791 134 3420 21 
Q 3050 -91 2638 -91 
Q 1578 -91 968 557 
Q 359 1206 359 2328 
Q 359 3453 968 4101 
Q 1578 4750 2638 4750 
Q 3056 4750 3426 4639 
Q 3797 4528 4122 4306 
z
" transform="scale(0.015625)"/>
       <path id="DejaVuSans-64" d="M 2906 2969 
L 2906 4863 
L 3481 4863 
L 3481 0 
L 2906 0 
L 2906 525 
Q 2725 213 2448 61 
Q 2172 -91 1784 -91 
Q 1150 -91 751 415 
Q 353 922 353 1747 
Q 353 2572 751 3078 
Q 1150 3584 1784 3584 
Q 2172 3584 2448 3432 
Q 2725 3281 2906 2969 
z
M 947 1747 
Q 947 1113 1208 752 
Q 1469 391 1925 391 
Q 2381 391 2643 752 
Q 2906 1113 2906 1747 
Q 2906 2381 2643 2742 
Q 2381 3103 1925 3103 
Q 1469 3103 1208 2742 
Q 947 2381 947 1747 
z
" transform="scale(0.015625)"/>
      </defs>
      <use xlink:href="#DejaVuSans-43"/>
      <use xlink:href="#DejaVuSans-61" x="69.824219"/>
      <use xlink:href="#DejaVuSans-6e" x="131.103516"/>
      <use xlink:href="#DejaVuSans-61" x="194.482422"/>
      <use xlink:href="#DejaVuSans-64" x="255.761719"/>
      <use xlink:href="#DejaVuSans-61" x="319.238281"/>
     </g>
    </g>
    <g id="line2d_67">
     <path d="M 931.807088 134.324987 
L 941.807088 134.324987 
L 951.807088 134.324987 
" style="fill: none; stroke: #f2c80c; stroke-width: 1.5; stroke-linecap: square"/>
    </g>
    <g id="text_27">
     <!-- Croatia -->
     <g transform="translate(959.807088 137.824987) scale(0.1 -0.1)">
      <use xlink:href="#DejaVuSans-43"/>
      <use xlink:href="#DejaVuSans-72" x="69.824219"/>
      <use xlink:href="#DejaVuSans-6f" x="108.6875"/>
      <use xlink:href="#DejaVuSans-61" x="169.869141"/>
      <use xlink:href="#DejaVuSans-74" x="231.148438"/>
      <use xlink:href="#DejaVuSans-69" x="270.357422"/>
      <use xlink:href="#DejaVuSans-61" x="298.140625"/>
     </g>
    </g>
    <g id="line2d_68">
     <path d="M 931.807088 149.003112 
L 941.807088 149.003112 
L 951.807088 149.003112 
" style="fill: none; stroke: #f4ec3d; stroke-width: 1.5; stroke-linecap: square"/>
    </g>
    <g id="text_28">
     <!-- Cyprus -->
     <g transform="translate(959.807088 152.503112) scale(0.1 -0.1)">
      <defs>
       <path id="DejaVuSans-70" d="M 1159 525 
L 1159 -1331 
L 581 -1331 
L 581 3500 
L 1159 3500 
L 1159 2969 
Q 1341 3281 1617 3432 
Q 1894 3584 2278 3584 
Q 2916 3584 3314 3078 
Q 3713 2572 3713 1747 
Q 3713 922 3314 415 
Q 2916 -91 2278 -91 
Q 1894 -91 1617 61 
Q 1341 213 1159 525 
z
M 3116 1747 
Q 3116 2381 2855 2742 
Q 2594 3103 2138 3103 
Q 1681 3103 1420 2742 
Q 1159 2381 1159 1747 
Q 1159 1113 1420 752 
Q 1681 391 2138 391 
Q 2594 391 2855 752 
Q 3116 1113 3116 1747 
z
" transform="scale(0.015625)"/>
      </defs>
      <use xlink:href="#DejaVuSans-43"/>
      <use xlink:href="#DejaVuSans-79" x="69.824219"/>
      <use xlink:href="#DejaVuSans-70" x="129.003906"/>
      <use xlink:href="#DejaVuSans-72" x="192.480469"/>
      <use xlink:href="#DejaVuSans-75" x="233.59375"/>
      <use xlink:href="#DejaVuSans-73" x="296.972656"/>
     </g>
    </g>
    <g id="line2d_69">
     <path d="M 931.807088 163.681237 
L 941.807088 163.681237 
L 951.807088 163.681237 
" style="fill: none; stroke: #ddf20c; stroke-width: 1.5; stroke-linecap: square"/>
    </g>
    <g id="text_29">
     <!-- Czechia -->
     <g transform="translate(959.807088 167.181237) scale(0.1 -0.1)">
      <defs>
       <path id="DejaVuSans-7a" d="M 353 3500 
L 3084 3500 
L 3084 2975 
L 922 459 
L 3084 459 
L 3084 0 
L 275 0 
L 275 525 
L 2438 3041 
L 353 3041 
L 353 3500 
z
" transform="scale(0.015625)"/>
       <path id="DejaVuSans-63" d="M 3122 3366 
L 3122 2828 
Q 2878 2963 2633 3030 
Q 2388 3097 2138 3097 
Q 1578 3097 1268 2742 
Q 959 2388 959 1747 
Q 959 1106 1268 751 
Q 1578 397 2138 397 
Q 2388 397 2633 464 
Q 2878 531 3122 666 
L 3122 134 
Q 2881 22 2623 -34 
Q 2366 -91 2075 -91 
Q 1284 -91 818 406 
Q 353 903 353 1747 
Q 353 2603 823 3093 
Q 1294 3584 2113 3584 
Q 2378 3584 2631 3529 
Q 2884 3475 3122 3366 
z
" transform="scale(0.015625)"/>
      </defs>
      <use xlink:href="#DejaVuSans-43"/>
      <use xlink:href="#DejaVuSans-7a" x="69.824219"/>
      <use xlink:href="#DejaVuSans-65" x="122.314453"/>
      <use xlink:href="#DejaVuSans-63" x="183.837891"/>
      <use xlink:href="#DejaVuSans-68" x="238.818359"/>
      <use xlink:href="#DejaVuSans-69" x="302.197266"/>
      <use xlink:href="#DejaVuSans-61" x="329.980469"/>
     </g>
    </g>
    <g id="line2d_70">
     <path d="M 931.807088 178.359362 
L 941.807088 178.359362 
L 951.807088 178.359362 
" style="fill: none; stroke: #cbf43d; stroke-width: 1.5; stroke-linecap: square"/>
    </g>
    <g id="text_30">
     <!-- Denmark -->
     <g transform="translate(959.807088 181.859362) scale(0.1 -0.1)">
      <defs>
       <path id="DejaVuSans-6b" d="M 581 4863 
L 1159 4863 
L 1159 1991 
L 2875 3500 
L 3609 3500 
L 1753 1863 
L 3688 0 
L 2938 0 
L 1159 1709 
L 1159 0 
L 581 0 
L 581 4863 
z
" transform="scale(0.015625)"/>
      </defs>
      <use xlink:href="#DejaVuSans-44"/>
      <use xlink:href="#DejaVuSans-65" x="77.001953"/>
      <use xlink:href="#DejaVuSans-6e" x="138.525391"/>
      <use xlink:href="#DejaVuSans-6d" x="201.904297"/>
      <use xlink:href="#DejaVuSans-61" x="299.316406"/>
      <use xlink:href="#DejaVuSans-72" x="360.595703"/>
      <use xlink:href="#DejaVuSans-6b" x="401.708984"/>
     </g>
    </g>
    <g id="line2d_71">
     <path d="M 931.807088 193.037487 
L 941.807088 193.037487 
L 951.807088 193.037487 
" style="fill: none; stroke: #9ef20c; stroke-width: 1.5; stroke-linecap: square"/>
    </g>
    <g id="text_31">
     <!-- Estonia -->
     <g transform="translate(959.807088 196.537487) scale(0.1 -0.1)">
      <defs>
       <path id="DejaVuSans-45" d="M 628 4666 
L 3578 4666 
L 3578 4134 
L 1259 4134 
L 1259 2753 
L 3481 2753 
L 3481 2222 
L 1259 2222 
L 1259 531 
L 3634 531 
L 3634 0 
L 628 0 
L 628 4666 
z
" transform="scale(0.015625)"/>
      </defs>
      <use xlink:href="#DejaVuSans-45"/>
      <use xlink:href="#DejaVuSans-73" x="63.183594"/>
      <use xlink:href="#DejaVuSans-74" x="115.283203"/>
      <use xlink:href="#DejaVuSans-6f" x="154.492188"/>
      <use xlink:href="#DejaVuSans-6e" x="215.673828"/>
      <use xlink:href="#DejaVuSans-69" x="279.052734"/>
      <use xlink:href="#DejaVuSans-61" x="306.835938"/>
     </g>
    </g>
    <g id="line2d_72">
     <path d="M 931.807088 207.715612 
L 941.807088 207.715612 
L 951.807088 207.715612 
" style="fill: none; stroke: #99f43d; stroke-width: 1.5; stroke-linecap: square"/>
    </g>
    <g id="text_32">
     <!-- European Union (Convention) -->
     <g transform="translate(959.807088 211.215612) scale(0.1 -0.1)">
      <defs>
       <path id="DejaVuSans-55" d="M 556 4666 
L 1191 4666 
L 1191 1831 
Q 1191 1081 1462 751 
Q 1734 422 2344 422 
Q 2950 422 3222 751 
Q 3494 1081 3494 1831 
L 3494 4666 
L 4128 4666 
L 4128 1753 
Q 4128 841 3676 375 
Q 3225 -91 2344 -91 
Q 1459 -91 1007 375 
Q 556 841 556 1753 
L 556 4666 
z
" transform="scale(0.015625)"/>
       <path id="DejaVuSans-28" d="M 1984 4856 
Q 1566 4138 1362 3434 
Q 1159 2731 1159 2009 
Q 1159 1288 1364 580 
Q 1569 -128 1984 -844 
L 1484 -844 
Q 1016 -109 783 600 
Q 550 1309 550 2009 
Q 550 2706 781 3412 
Q 1013 4119 1484 4856 
L 1984 4856 
z
" transform="scale(0.015625)"/>
       <path id="DejaVuSans-29" d="M 513 4856 
L 1013 4856 
Q 1481 4119 1714 3412 
Q 1947 2706 1947 2009 
Q 1947 1309 1714 600 
Q 1481 -109 1013 -844 
L 513 -844 
Q 928 -128 1133 580 
Q 1338 1288 1338 2009 
Q 1338 2731 1133 3434 
Q 928 4138 513 4856 
z
" transform="scale(0.015625)"/>
      </defs>
      <use xlink:href="#DejaVuSans-45"/>
      <use xlink:href="#DejaVuSans-75" x="63.183594"/>
      <use xlink:href="#DejaVuSans-72" x="126.5625"/>
      <use xlink:href="#DejaVuSans-6f" x="165.425781"/>
      <use xlink:href="#DejaVuSans-70" x="226.607422"/>
      <use xlink:href="#DejaVuSans-65" x="290.083984"/>
      <use xlink:href="#DejaVuSans-61" x="351.607422"/>
      <use xlink:href="#DejaVuSans-6e" x="412.886719"/>
      <use xlink:href="#DejaVuSans-20" x="476.265625"/>
      <use xlink:href="#DejaVuSans-55" x="508.052734"/>
      <use xlink:href="#DejaVuSans-6e" x="581.246094"/>
      <use xlink:href="#DejaVuSans-69" x="644.625"/>
      <use xlink:href="#DejaVuSans-6f" x="672.408203"/>
      <use xlink:href="#DejaVuSans-6e" x="733.589844"/>
      <use xlink:href="#DejaVuSans-20" x="796.96875"/>
      <use xlink:href="#DejaVuSans-28" x="828.755859"/>
      <use xlink:href="#DejaVuSans-43" x="867.769531"/>
      <use xlink:href="#DejaVuSans-6f" x="937.59375"/>
      <use xlink:href="#DejaVuSans-6e" x="998.775391"/>
      <use xlink:href="#DejaVuSans-76" x="1062.154297"/>
      <use xlink:href="#DejaVuSans-65" x="1121.333984"/>
      <use xlink:href="#DejaVuSans-6e" x="1182.857422"/>
      <use xlink:href="#DejaVuSans-74" x="1246.236328"/>
      <use xlink:href="#DejaVuSans-69" x="1285.445312"/>
      <use xlink:href="#DejaVuSans-6f" x="1313.228516"/>
      <use xlink:href="#DejaVuSans-6e" x="1374.410156"/>
      <use xlink:href="#DejaVuSans-29" x="1437.789062"/>
     </g>
    </g>
    <g id="line2d_73">
     <path d="M 931.807088 222.393737 
L 941.807088 222.393737 
L 951.807088 222.393737 
" style="fill: none; stroke: #60f20c; stroke-width: 1.5; stroke-linecap: square"/>
    </g>
    <g id="text_33">
     <!-- Finland -->
     <g transform="translate(959.807088 225.893737) scale(0.1 -0.1)">
      <defs>
       <path id="DejaVuSans-46" d="M 628 4666 
L 3309 4666 
L 3309 4134 
L 1259 4134 
L 1259 2759 
L 3109 2759 
L 3109 2228 
L 1259 2228 
L 1259 0 
L 628 0 
L 628 4666 
z
" transform="scale(0.015625)"/>
      </defs>
      <use xlink:href="#DejaVuSans-46"/>
      <use xlink:href="#DejaVuSans-69" x="50.269531"/>
      <use xlink:href="#DejaVuSans-6e" x="78.052734"/>
      <use xlink:href="#DejaVuSans-6c" x="141.431641"/>
      <use xlink:href="#DejaVuSans-61" x="169.214844"/>
      <use xlink:href="#DejaVuSans-6e" x="230.494141"/>
      <use xlink:href="#DejaVuSans-64" x="293.873047"/>
     </g>
    </g>
    <g id="line2d_74">
     <path d="M 931.807088 237.071862 
L 941.807088 237.071862 
L 951.807088 237.071862 
" style="fill: none; stroke: #66f43d; stroke-width: 1.5; stroke-linecap: square"/>
    </g>
    <g id="text_34">
     <!-- France -->
     <g transform="translate(959.807088 240.571862) scale(0.1 -0.1)">
      <use xlink:href="#DejaVuSans-46"/>
      <use xlink:href="#DejaVuSans-72" x="50.269531"/>
      <use xlink:href="#DejaVuSans-61" x="91.382812"/>
      <use xlink:href="#DejaVuSans-6e" x="152.662109"/>
      <use xlink:href="#DejaVuSans-63" x="216.041016"/>
      <use xlink:href="#DejaVuSans-65" x="271.021484"/>
     </g>
    </g>
    <g id="line2d_75">
     <path d="M 931.807088 251.749987 
L 941.807088 251.749987 
L 951.807088 251.749987 
" style="fill: none; stroke: #21f20c; stroke-width: 1.5; stroke-linecap: square"/>
    </g>
    <g id="text_35">
     <!-- Germany -->
     <g transform="translate(959.807088 255.249987) scale(0.1 -0.1)">
      <use xlink:href="#DejaVuSans-47"/>
      <use xlink:href="#DejaVuSans-65" x="77.490234"/>
      <use xlink:href="#DejaVuSans-72" x="139.013672"/>
      <use xlink:href="#DejaVuSans-6d" x="178.376953"/>
      <use xlink:href="#DejaVuSans-61" x="275.789062"/>
      <use xlink:href="#DejaVuSans-6e" x="337.068359"/>
      <use xlink:href="#DejaVuSans-79" x="400.447266"/>
     </g>
    </g>
    <g id="line2d_76">
     <path d="M 931.807088 266.428112 
L 941.807088 266.428112 
L 951.807088 266.428112 
" style="fill: none; stroke: #3df445; stroke-width: 1.5; stroke-linecap: square"/>
    </g>
    <g id="text_36">
     <!-- Greece -->
     <g transform="translate(959.807088 269.928112) scale(0.1 -0.1)">
      <use xlink:href="#DejaVuSans-47"/>
      <use xlink:href="#DejaVuSans-72" x="77.490234"/>
      <use xlink:href="#DejaVuSans-65" x="116.353516"/>
      <use xlink:href="#DejaVuSans-65" x="177.876953"/>
      <use xlink:href="#DejaVuSans-63" x="239.400391"/>
      <use xlink:href="#DejaVuSans-65" x="294.380859"/>
     </g>
    </g>
    <g id="line2d_77">
     <path d="M 931.807088 281.106237 
L 941.807088 281.106237 
L 951.807088 281.106237 
" style="fill: none; stroke: #0cf236; stroke-width: 1.5; stroke-linecap: square"/>
    </g>
    <g id="text_37">
     <!-- Hungary -->
     <g transform="translate(959.807088 284.606237) scale(0.1 -0.1)">
      <use xlink:href="#DejaVuSans-48"/>
      <use xlink:href="#DejaVuSans-75" x="75.195312"/>
      <use xlink:href="#DejaVuSans-6e" x="138.574219"/>
      <use xlink:href="#DejaVuSans-67" x="201.953125"/>
      <use xlink:href="#DejaVuSans-61" x="265.429688"/>
      <use xlink:href="#DejaVuSans-72" x="326.708984"/>
      <use xlink:href="#DejaVuSans-79" x="367.822266"/>
     </g>
    </g>
    <g id="line2d_78">
     <path d="M 931.807088 295.784362 
L 941.807088 295.784362 
L 951.807088 295.784362 
" style="fill: none; stroke: #3df477; stroke-width: 1.5; stroke-linecap: square"/>
    </g>
    <g id="text_38">
     <!-- Iceland -->
     <g transform="translate(959.807088 299.284362) scale(0.1 -0.1)">
      <defs>
       <path id="DejaVuSans-49" d="M 628 4666 
L 1259 4666 
L 1259 0 
L 628 0 
L 628 4666 
z
" transform="scale(0.015625)"/>
      </defs>
      <use xlink:href="#DejaVuSans-49"/>
      <use xlink:href="#DejaVuSans-63" x="29.492188"/>
      <use xlink:href="#DejaVuSans-65" x="84.472656"/>
      <use xlink:href="#DejaVuSans-6c" x="145.996094"/>
      <use xlink:href="#DejaVuSans-61" x="173.779297"/>
      <use xlink:href="#DejaVuSans-6e" x="235.058594"/>
      <use xlink:href="#DejaVuSans-64" x="298.4375"/>
     </g>
    </g>
    <g id="line2d_79">
     <path d="M 931.807088 310.462487 
L 941.807088 310.462487 
L 951.807088 310.462487 
" style="fill: none; stroke: #0cf275; stroke-width: 1.5; stroke-linecap: square"/>
    </g>
    <g id="text_39">
     <!-- Ireland -->
     <g transform="translate(959.807088 313.962487) scale(0.1 -0.1)">
      <use xlink:href="#DejaVuSans-49"/>
      <use xlink:href="#DejaVuSans-72" x="29.492188"/>
      <use xlink:href="#DejaVuSans-65" x="68.355469"/>
      <use xlink:href="#DejaVuSans-6c" x="129.878906"/>
      <use xlink:href="#DejaVuSans-61" x="157.662109"/>
      <use xlink:href="#DejaVuSans-6e" x="218.941406"/>
      <use xlink:href="#DejaVuSans-64" x="282.320312"/>
     </g>
    </g>
    <g id="line2d_80">
     <path d="M 931.807088 325.140612 
L 941.807088 325.140612 
L 951.807088 325.140612 
" style="fill: none; stroke: #3df4a9; stroke-width: 1.5; stroke-linecap: square"/>
    </g>
    <g id="text_40">
     <!-- Italy -->
     <g transform="translate(959.807088 328.640612) scale(0.1 -0.1)">
      <use xlink:href="#DejaVuSans-49"/>
      <use xlink:href="#DejaVuSans-74" x="29.492188"/>
      <use xlink:href="#DejaVuSans-61" x="68.701172"/>
      <use xlink:href="#DejaVuSans-6c" x="129.980469"/>
      <use xlink:href="#DejaVuSans-79" x="157.763672"/>
     </g>
    </g>
    <g id="line2d_81">
     <path d="M 931.807088 339.818737 
L 941.807088 339.818737 
L 951.807088 339.818737 
" style="fill: none; stroke: #0cf2b3; stroke-width: 1.5; stroke-linecap: square"/>
    </g>
    <g id="text_41">
     <!-- Japan -->
     <g transform="translate(959.807088 343.318737) scale(0.1 -0.1)">
      <defs>
       <path id="DejaVuSans-4a" d="M 628 4666 
L 1259 4666 
L 1259 325 
Q 1259 -519 939 -900 
Q 619 -1281 -91 -1281 
L -331 -1281 
L -331 -750 
L -134 -750 
Q 284 -750 456 -515 
Q 628 -281 628 325 
L 628 4666 
z
" transform="scale(0.015625)"/>
      </defs>
      <use xlink:href="#DejaVuSans-4a"/>
      <use xlink:href="#DejaVuSans-61" x="29.492188"/>
      <use xlink:href="#DejaVuSans-70" x="90.771484"/>
      <use xlink:href="#DejaVuSans-61" x="154.248047"/>
      <use xlink:href="#DejaVuSans-6e" x="215.527344"/>
     </g>
    </g>
    <g id="line2d_82">
     <path d="M 931.807088 354.496862 
L 941.807088 354.496862 
L 951.807088 354.496862 
" style="fill: none; stroke: #3df4db; stroke-width: 1.5; stroke-linecap: square"/>
    </g>
    <g id="text_42">
     <!-- Kazakhstan -->
     <g transform="translate(959.807088 357.996862) scale(0.1 -0.1)">
      <defs>
       <path id="DejaVuSans-4b" d="M 628 4666 
L 1259 4666 
L 1259 2694 
L 3353 4666 
L 4166 4666 
L 1850 2491 
L 4331 0 
L 3500 0 
L 1259 2247 
L 1259 0 
L 628 0 
L 628 4666 
z
" transform="scale(0.015625)"/>
      </defs>
      <use xlink:href="#DejaVuSans-4b"/>
      <use xlink:href="#DejaVuSans-61" x="63.826172"/>
      <use xlink:href="#DejaVuSans-7a" x="125.105469"/>
      <use xlink:href="#DejaVuSans-61" x="177.595703"/>
      <use xlink:href="#DejaVuSans-6b" x="238.875"/>
      <use xlink:href="#DejaVuSans-68" x="296.785156"/>
      <use xlink:href="#DejaVuSans-73" x="360.164062"/>
      <use xlink:href="#DejaVuSans-74" x="412.263672"/>
      <use xlink:href="#DejaVuSans-61" x="451.472656"/>
      <use xlink:href="#DejaVuSans-6e" x="512.751953"/>
     </g>
    </g>
    <g id="line2d_83">
     <path d="M 931.807088 369.174987 
L 941.807088 369.174987 
L 951.807088 369.174987 
" style="fill: none; stroke: #0cf2f2; stroke-width: 1.5; stroke-linecap: square"/>
    </g>
    <g id="text_43">
     <!-- Latvia -->
     <g transform="translate(959.807088 372.674987) scale(0.1 -0.1)">
      <defs>
       <path id="DejaVuSans-4c" d="M 628 4666 
L 1259 4666 
L 1259 531 
L 3531 531 
L 3531 0 
L 628 0 
L 628 4666 
z
" transform="scale(0.015625)"/>
      </defs>
      <use xlink:href="#DejaVuSans-4c"/>
      <use xlink:href="#DejaVuSans-61" x="55.712891"/>
      <use xlink:href="#DejaVuSans-74" x="116.992188"/>
      <use xlink:href="#DejaVuSans-76" x="156.201172"/>
      <use xlink:href="#DejaVuSans-69" x="215.380859"/>
      <use xlink:href="#DejaVuSans-61" x="243.164062"/>
     </g>
    </g>
    <g id="line2d_84">
     <path d="M 931.807088 383.853113 
L 941.807088 383.853113 
L 951.807088 383.853113 
" style="fill: none; stroke: #3ddbf4; stroke-width: 1.5; stroke-linecap: square"/>
    </g>
    <g id="text_44">
     <!-- Liechtenstein -->
     <g transform="translate(959.807088 387.353113) scale(0.1 -0.1)">
      <use xlink:href="#DejaVuSans-4c"/>
      <use xlink:href="#DejaVuSans-69" x="55.712891"/>
      <use xlink:href="#DejaVuSans-65" x="83.496094"/>
      <use xlink:href="#DejaVuSans-63" x="145.019531"/>
      <use xlink:href="#DejaVuSans-68" x="200"/>
      <use xlink:href="#DejaVuSans-74" x="263.378906"/>
      <use xlink:href="#DejaVuSans-65" x="302.587891"/>
      <use xlink:href="#DejaVuSans-6e" x="364.111328"/>
      <use xlink:href="#DejaVuSans-73" x="427.490234"/>
      <use xlink:href="#DejaVuSans-74" x="479.589844"/>
      <use xlink:href="#DejaVuSans-65" x="518.798828"/>
      <use xlink:href="#DejaVuSans-69" x="580.322266"/>
      <use xlink:href="#DejaVuSans-6e" x="608.105469"/>
     </g>
    </g>
    <g id="line2d_85">
     <path d="M 931.807088 398.531238 
L 941.807088 398.531238 
L 951.807088 398.531238 
" style="fill: none; stroke: #0cb3f2; stroke-width: 1.5; stroke-linecap: square"/>
    </g>
    <g id="text_45">
     <!-- Lithuania -->
     <g transform="translate(959.807088 402.031238) scale(0.1 -0.1)">
      <use xlink:href="#DejaVuSans-4c"/>
      <use xlink:href="#DejaVuSans-69" x="55.712891"/>
      <use xlink:href="#DejaVuSans-74" x="83.496094"/>
      <use xlink:href="#DejaVuSans-68" x="122.705078"/>
      <use xlink:href="#DejaVuSans-75" x="186.083984"/>
      <use xlink:href="#DejaVuSans-61" x="249.462891"/>
      <use xlink:href="#DejaVuSans-6e" x="310.742188"/>
      <use xlink:href="#DejaVuSans-69" x="374.121094"/>
      <use xlink:href="#DejaVuSans-61" x="401.904297"/>
     </g>
    </g>
    <g id="line2d_86">
     <path d="M 931.807088 413.209363 
L 941.807088 413.209363 
L 951.807088 413.209363 
" style="fill: none; stroke: #3da9f4; stroke-width: 1.5; stroke-linecap: square"/>
    </g>
    <g id="text_46">
     <!-- Luxembourg -->
     <g transform="translate(959.807088 416.709363) scale(0.1 -0.1)">
      <defs>
       <path id="DejaVuSans-78" d="M 3513 3500 
L 2247 1797 
L 3578 0 
L 2900 0 
L 1881 1375 
L 863 0 
L 184 0 
L 1544 1831 
L 300 3500 
L 978 3500 
L 1906 2253 
L 2834 3500 
L 3513 3500 
z
" transform="scale(0.015625)"/>
       <path id="DejaVuSans-62" d="M 3116 1747 
Q 3116 2381 2855 2742 
Q 2594 3103 2138 3103 
Q 1681 3103 1420 2742 
Q 1159 2381 1159 1747 
Q 1159 1113 1420 752 
Q 1681 391 2138 391 
Q 2594 391 2855 752 
Q 3116 1113 3116 1747 
z
M 1159 2969 
Q 1341 3281 1617 3432 
Q 1894 3584 2278 3584 
Q 2916 3584 3314 3078 
Q 3713 2572 3713 1747 
Q 3713 922 3314 415 
Q 2916 -91 2278 -91 
Q 1894 -91 1617 61 
Q 1341 213 1159 525 
L 1159 0 
L 581 0 
L 581 4863 
L 1159 4863 
L 1159 2969 
z
" transform="scale(0.015625)"/>
      </defs>
      <use xlink:href="#DejaVuSans-4c"/>
      <use xlink:href="#DejaVuSans-75" x="53.962891"/>
      <use xlink:href="#DejaVuSans-78" x="117.341797"/>
      <use xlink:href="#DejaVuSans-65" x="173.396484"/>
      <use xlink:href="#DejaVuSans-6d" x="234.919922"/>
      <use xlink:href="#DejaVuSans-62" x="332.332031"/>
      <use xlink:href="#DejaVuSans-6f" x="395.808594"/>
      <use xlink:href="#DejaVuSans-75" x="456.990234"/>
      <use xlink:href="#DejaVuSans-72" x="520.369141"/>
      <use xlink:href="#DejaVuSans-67" x="559.732422"/>
     </g>
    </g>
    <g id="line2d_87">
     <path d="M 931.807088 427.887488 
L 941.807088 427.887488 
L 951.807088 427.887488 
" style="fill: none; stroke: #0c75f2; stroke-width: 1.5; stroke-linecap: square"/>
    </g>
    <g id="text_47">
     <!-- Malta -->
     <g transform="translate(959.807088 431.387488) scale(0.1 -0.1)">
      <defs>
       <path id="DejaVuSans-4d" d="M 628 4666 
L 1569 4666 
L 2759 1491 
L 3956 4666 
L 4897 4666 
L 4897 0 
L 4281 0 
L 4281 4097 
L 3078 897 
L 2444 897 
L 1241 4097 
L 1241 0 
L 628 0 
L 628 4666 
z
" transform="scale(0.015625)"/>
      </defs>
      <use xlink:href="#DejaVuSans-4d"/>
      <use xlink:href="#DejaVuSans-61" x="86.279297"/>
      <use xlink:href="#DejaVuSans-6c" x="147.558594"/>
      <use xlink:href="#DejaVuSans-74" x="175.341797"/>
      <use xlink:href="#DejaVuSans-61" x="214.550781"/>
     </g>
    </g>
    <g id="line2d_88">
     <path d="M 931.807088 442.565613 
L 941.807088 442.565613 
L 951.807088 442.565613 
" style="fill: none; stroke: #3d77f4; stroke-width: 1.5; stroke-linecap: square"/>
    </g>
    <g id="text_48">
     <!-- Monaco -->
     <g transform="translate(959.807088 446.065613) scale(0.1 -0.1)">
      <use xlink:href="#DejaVuSans-4d"/>
      <use xlink:href="#DejaVuSans-6f" x="86.279297"/>
      <use xlink:href="#DejaVuSans-6e" x="147.460938"/>
      <use xlink:href="#DejaVuSans-61" x="210.839844"/>
      <use xlink:href="#DejaVuSans-63" x="272.119141"/>
      <use xlink:href="#DejaVuSans-6f" x="327.099609"/>
     </g>
    </g>
    <g id="line2d_89">
     <path d="M 931.807088 457.243738 
L 941.807088 457.243738 
L 951.807088 457.243738 
" style="fill: none; stroke: #0c36f2; stroke-width: 1.5; stroke-linecap: square"/>
    </g>
    <g id="text_49">
     <!-- Netherlands -->
     <g transform="translate(959.807088 460.743738) scale(0.1 -0.1)">
      <defs>
       <path id="DejaVuSans-4e" d="M 628 4666 
L 1478 4666 
L 3547 763 
L 3547 4666 
L 4159 4666 
L 4159 0 
L 3309 0 
L 1241 3903 
L 1241 0 
L 628 0 
L 628 4666 
z
" transform="scale(0.015625)"/>
      </defs>
      <use xlink:href="#DejaVuSans-4e"/>
      <use xlink:href="#DejaVuSans-65" x="74.804688"/>
      <use xlink:href="#DejaVuSans-74" x="136.328125"/>
      <use xlink:href="#DejaVuSans-68" x="175.537109"/>
      <use xlink:href="#DejaVuSans-65" x="238.916016"/>
      <use xlink:href="#DejaVuSans-72" x="300.439453"/>
      <use xlink:href="#DejaVuSans-6c" x="341.552734"/>
      <use xlink:href="#DejaVuSans-61" x="369.335938"/>
      <use xlink:href="#DejaVuSans-6e" x="430.615234"/>
      <use xlink:href="#DejaVuSans-64" x="493.994141"/>
      <use xlink:href="#DejaVuSans-73" x="557.470703"/>
     </g>
    </g>
    <g id="line2d_90">
     <path d="M 931.807088 471.921863 
L 941.807088 471.921863 
L 951.807088 471.921863 
" style="fill: none; stroke: #3d45f4; stroke-width: 1.5; stroke-linecap: square"/>
    </g>
    <g id="text_50">
     <!-- New Zealand -->
     <g transform="translate(959.807088 475.421863) scale(0.1 -0.1)">
      <defs>
       <path id="DejaVuSans-77" d="M 269 3500 
L 844 3500 
L 1563 769 
L 2278 3500 
L 2956 3500 
L 3675 769 
L 4391 3500 
L 4966 3500 
L 4050 0 
L 3372 0 
L 2619 2869 
L 1863 0 
L 1184 0 
L 269 3500 
z
" transform="scale(0.015625)"/>
       <path id="DejaVuSans-5a" d="M 359 4666 
L 4025 4666 
L 4025 4184 
L 1075 531 
L 4097 531 
L 4097 0 
L 288 0 
L 288 481 
L 3238 4134 
L 359 4134 
L 359 4666 
z
" transform="scale(0.015625)"/>
      </defs>
      <use xlink:href="#DejaVuSans-4e"/>
      <use xlink:href="#DejaVuSans-65" x="74.804688"/>
      <use xlink:href="#DejaVuSans-77" x="136.328125"/>
      <use xlink:href="#DejaVuSans-20" x="218.115234"/>
      <use xlink:href="#DejaVuSans-5a" x="249.902344"/>
      <use xlink:href="#DejaVuSans-65" x="318.408203"/>
      <use xlink:href="#DejaVuSans-61" x="379.931641"/>
      <use xlink:href="#DejaVuSans-6c" x="441.210938"/>
      <use xlink:href="#DejaVuSans-61" x="468.994141"/>
      <use xlink:href="#DejaVuSans-6e" x="530.273438"/>
      <use xlink:href="#DejaVuSans-64" x="593.652344"/>
     </g>
    </g>
    <g id="line2d_91">
     <path d="M 931.807088 486.599988 
L 941.807088 486.599988 
L 951.807088 486.599988 
" style="fill: none; stroke: #210cf2; stroke-width: 1.5; stroke-linecap: square"/>
    </g>
    <g id="text_51">
     <!-- Norway -->
     <g transform="translate(959.807088 490.099988) scale(0.1 -0.1)">
      <use xlink:href="#DejaVuSans-4e"/>
      <use xlink:href="#DejaVuSans-6f" x="74.804688"/>
      <use xlink:href="#DejaVuSans-72" x="135.986328"/>
      <use xlink:href="#DejaVuSans-77" x="177.099609"/>
      <use xlink:href="#DejaVuSans-61" x="258.886719"/>
      <use xlink:href="#DejaVuSans-79" x="320.166016"/>
     </g>
    </g>
    <g id="line2d_92">
     <path d="M 931.807088 501.278113 
L 941.807088 501.278113 
L 951.807088 501.278113 
" style="fill: none; stroke: #663df4; stroke-width: 1.5; stroke-linecap: square"/>
    </g>
    <g id="text_52">
     <!-- Poland -->
     <g transform="translate(959.807088 504.778113) scale(0.1 -0.1)">
      <use xlink:href="#DejaVuSans-50"/>
      <use xlink:href="#DejaVuSans-6f" x="56.677734"/>
      <use xlink:href="#DejaVuSans-6c" x="117.859375"/>
      <use xlink:href="#DejaVuSans-61" x="145.642578"/>
      <use xlink:href="#DejaVuSans-6e" x="206.921875"/>
      <use xlink:href="#DejaVuSans-64" x="270.300781"/>
     </g>
    </g>
    <g id="line2d_93">
     <path d="M 931.807088 515.956238 
L 941.807088 515.956238 
L 951.807088 515.956238 
" style="fill: none; stroke: #600cf2; stroke-width: 1.5; stroke-linecap: square"/>
    </g>
    <g id="text_53">
     <!-- Portugal -->
     <g transform="translate(959.807088 519.456238) scale(0.1 -0.1)">
      <use xlink:href="#DejaVuSans-50"/>
      <use xlink:href="#DejaVuSans-6f" x="56.677734"/>
      <use xlink:href="#DejaVuSans-72" x="117.859375"/>
      <use xlink:href="#DejaVuSans-74" x="158.972656"/>
      <use xlink:href="#DejaVuSans-75" x="198.181641"/>
      <use xlink:href="#DejaVuSans-67" x="261.560547"/>
      <use xlink:href="#DejaVuSans-61" x="325.037109"/>
      <use xlink:href="#DejaVuSans-6c" x="386.316406"/>
     </g>
    </g>
    <g id="line2d_94">
     <path d="M 931.807088 530.634363 
L 941.807088 530.634363 
L 951.807088 530.634363 
" style="fill: none; stroke: #993df4; stroke-width: 1.5; stroke-linecap: square"/>
    </g>
    <g id="text_54">
     <!-- Romania -->
     <g transform="translate(959.807088 534.134363) scale(0.1 -0.1)">
      <defs>
       <path id="DejaVuSans-52" d="M 2841 2188 
Q 3044 2119 3236 1894 
Q 3428 1669 3622 1275 
L 4263 0 
L 3584 0 
L 2988 1197 
Q 2756 1666 2539 1819 
Q 2322 1972 1947 1972 
L 1259 1972 
L 1259 0 
L 628 0 
L 628 4666 
L 2053 4666 
Q 2853 4666 3247 4331 
Q 3641 3997 3641 3322 
Q 3641 2881 3436 2590 
Q 3231 2300 2841 2188 
z
M 1259 4147 
L 1259 2491 
L 2053 2491 
Q 2509 2491 2742 2702 
Q 2975 2913 2975 3322 
Q 2975 3731 2742 3939 
Q 2509 4147 2053 4147 
L 1259 4147 
z
" transform="scale(0.015625)"/>
      </defs>
      <use xlink:href="#DejaVuSans-52"/>
      <use xlink:href="#DejaVuSans-6f" x="64.982422"/>
      <use xlink:href="#DejaVuSans-6d" x="126.164062"/>
      <use xlink:href="#DejaVuSans-61" x="223.576172"/>
      <use xlink:href="#DejaVuSans-6e" x="284.855469"/>
      <use xlink:href="#DejaVuSans-69" x="348.234375"/>
      <use xlink:href="#DejaVuSans-61" x="376.017578"/>
     </g>
    </g>
    <g id="line2d_95">
     <path d="M 931.807088 545.312488 
L 941.807088 545.312488 
L 951.807088 545.312488 
" style="fill: none; stroke: #9e0cf2; stroke-width: 1.5; stroke-linecap: square"/>
    </g>
    <g id="text_55">
     <!-- Russian Federation -->
     <g transform="translate(959.807088 548.812488) scale(0.1 -0.1)">
      <use xlink:href="#DejaVuSans-52"/>
      <use xlink:href="#DejaVuSans-75" x="64.982422"/>
      <use xlink:href="#DejaVuSans-73" x="128.361328"/>
      <use xlink:href="#DejaVuSans-73" x="180.460938"/>
      <use xlink:href="#DejaVuSans-69" x="232.560547"/>
      <use xlink:href="#DejaVuSans-61" x="260.34375"/>
      <use xlink:href="#DejaVuSans-6e" x="321.623047"/>
      <use xlink:href="#DejaVuSans-20" x="385.001953"/>
      <use xlink:href="#DejaVuSans-46" x="416.789062"/>
      <use xlink:href="#DejaVuSans-65" x="468.808594"/>
      <use xlink:href="#DejaVuSans-64" x="530.332031"/>
      <use xlink:href="#DejaVuSans-65" x="593.808594"/>
      <use xlink:href="#DejaVuSans-72" x="655.332031"/>
      <use xlink:href="#DejaVuSans-61" x="696.445312"/>
      <use xlink:href="#DejaVuSans-74" x="757.724609"/>
      <use xlink:href="#DejaVuSans-69" x="796.933594"/>
      <use xlink:href="#DejaVuSans-6f" x="824.716797"/>
      <use xlink:href="#DejaVuSans-6e" x="885.898438"/>
     </g>
    </g>
    <g id="line2d_96">
     <path d="M 931.807088 559.990613 
L 941.807088 559.990613 
L 951.807088 559.990613 
" style="fill: none; stroke: #cb3df4; stroke-width: 1.5; stroke-linecap: square"/>
    </g>
    <g id="text_56">
     <!-- Slovakia -->
     <g transform="translate(959.807088 563.490613) scale(0.1 -0.1)">
      <defs>
       <path id="DejaVuSans-53" d="M 3425 4513 
L 3425 3897 
Q 3066 4069 2747 4153 
Q 2428 4238 2131 4238 
Q 1616 4238 1336 4038 
Q 1056 3838 1056 3469 
Q 1056 3159 1242 3001 
Q 1428 2844 1947 2747 
L 2328 2669 
Q 3034 2534 3370 2195 
Q 3706 1856 3706 1288 
Q 3706 609 3251 259 
Q 2797 -91 1919 -91 
Q 1588 -91 1214 -16 
Q 841 59 441 206 
L 441 856 
Q 825 641 1194 531 
Q 1563 422 1919 422 
Q 2459 422 2753 634 
Q 3047 847 3047 1241 
Q 3047 1584 2836 1778 
Q 2625 1972 2144 2069 
L 1759 2144 
Q 1053 2284 737 2584 
Q 422 2884 422 3419 
Q 422 4038 858 4394 
Q 1294 4750 2059 4750 
Q 2388 4750 2728 4690 
Q 3069 4631 3425 4513 
z
" transform="scale(0.015625)"/>
      </defs>
      <use xlink:href="#DejaVuSans-53"/>
      <use xlink:href="#DejaVuSans-6c" x="63.476562"/>
      <use xlink:href="#DejaVuSans-6f" x="91.259766"/>
      <use xlink:href="#DejaVuSans-76" x="152.441406"/>
      <use xlink:href="#DejaVuSans-61" x="211.621094"/>
      <use xlink:href="#DejaVuSans-6b" x="272.900391"/>
      <use xlink:href="#DejaVuSans-69" x="330.810547"/>
      <use xlink:href="#DejaVuSans-61" x="358.59375"/>
     </g>
    </g>
    <g id="line2d_97">
     <path d="M 931.807088 574.668738 
L 941.807088 574.668738 
L 951.807088 574.668738 
" style="fill: none; stroke: #dd0cf2; stroke-width: 1.5; stroke-linecap: square"/>
    </g>
    <g id="text_57">
     <!-- Slovenia -->
     <g transform="translate(959.807088 578.168738) scale(0.1 -0.1)">
      <use xlink:href="#DejaVuSans-53"/>
      <use xlink:href="#DejaVuSans-6c" x="63.476562"/>
      <use xlink:href="#DejaVuSans-6f" x="91.259766"/>
      <use xlink:href="#DejaVuSans-76" x="152.441406"/>
      <use xlink:href="#DejaVuSans-65" x="211.621094"/>
      <use xlink:href="#DejaVuSans-6e" x="273.144531"/>
      <use xlink:href="#DejaVuSans-69" x="336.523438"/>
      <use xlink:href="#DejaVuSans-61" x="364.306641"/>
     </g>
    </g>
    <g id="line2d_98">
     <path d="M 931.807088 589.346863 
L 941.807088 589.346863 
L 951.807088 589.346863 
" style="fill: none; stroke: #f43dec; stroke-width: 1.5; stroke-linecap: square"/>
    </g>
    <g id="text_58">
     <!-- Spain -->
     <g transform="translate(959.807088 592.846863) scale(0.1 -0.1)">
      <use xlink:href="#DejaVuSans-53"/>
      <use xlink:href="#DejaVuSans-70" x="63.476562"/>
      <use xlink:href="#DejaVuSans-61" x="126.953125"/>
      <use xlink:href="#DejaVuSans-69" x="188.232422"/>
      <use xlink:href="#DejaVuSans-6e" x="216.015625"/>
     </g>
    </g>
    <g id="line2d_99">
     <path d="M 931.807088 604.024988 
L 941.807088 604.024988 
L 951.807088 604.024988 
" style="fill: none; stroke: #f20cc8; stroke-width: 1.5; stroke-linecap: square"/>
    </g>
    <g id="text_59">
     <!-- Sweden -->
     <g transform="translate(959.807088 607.524988) scale(0.1 -0.1)">
      <use xlink:href="#DejaVuSans-53"/>
      <use xlink:href="#DejaVuSans-77" x="63.476562"/>
      <use xlink:href="#DejaVuSans-65" x="145.263672"/>
      <use xlink:href="#DejaVuSans-64" x="206.787109"/>
      <use xlink:href="#DejaVuSans-65" x="270.263672"/>
      <use xlink:href="#DejaVuSans-6e" x="331.787109"/>
     </g>
    </g>
    <g id="line2d_100">
     <path d="M 931.807088 618.703113 
L 941.807088 618.703113 
L 951.807088 618.703113 
" style="fill: none; stroke: #f43dba; stroke-width: 1.5; stroke-linecap: square"/>
    </g>
    <g id="text_60">
     <!-- Switzerland -->
     <g transform="translate(959.807088 622.203113) scale(0.1 -0.1)">
      <use xlink:href="#DejaVuSans-53"/>
      <use xlink:href="#DejaVuSans-77" x="63.476562"/>
      <use xlink:href="#DejaVuSans-69" x="145.263672"/>
      <use xlink:href="#DejaVuSans-74" x="173.046875"/>
      <use xlink:href="#DejaVuSans-7a" x="212.255859"/>
      <use xlink:href="#DejaVuSans-65" x="264.746094"/>
      <use xlink:href="#DejaVuSans-72" x="326.269531"/>
      <use xlink:href="#DejaVuSans-6c" x="367.382812"/>
      <use xlink:href="#DejaVuSans-61" x="395.166016"/>
      <use xlink:href="#DejaVuSans-6e" x="456.445312"/>
      <use xlink:href="#DejaVuSans-64" x="519.824219"/>
     </g>
    </g>
    <g id="line2d_101">
     <path d="M 931.807088 633.381238 
L 941.807088 633.381238 
L 951.807088 633.381238 
" style="fill: none; stroke: #f20c89; stroke-width: 1.5; stroke-linecap: square"/>
    </g>
    <g id="text_61">
     <!-- Trkiye -->
     <g transform="translate(959.807088 636.881238) scale(0.1 -0.1)">
      <defs>
       <path id="DejaVuSans-fc" d="M 544 1381 
L 544 3500 
L 1119 3500 
L 1119 1403 
Q 1119 906 1312 657 
Q 1506 409 1894 409 
Q 2359 409 2629 706 
Q 2900 1003 2900 1516 
L 2900 3500 
L 3475 3500 
L 3475 0 
L 2900 0 
L 2900 538 
Q 2691 219 2414 64 
Q 2138 -91 1772 -91 
Q 1169 -91 856 284 
Q 544 659 544 1381 
z
M 1991 3584 
L 1991 3584 
z
M 2278 4850 
L 2912 4850 
L 2912 4219 
L 2278 4219 
L 2278 4850 
z
M 1056 4850 
L 1690 4850 
L 1690 4219 
L 1056 4219 
L 1056 4850 
z
" transform="scale(0.015625)"/>
      </defs>
      <use xlink:href="#DejaVuSans-54"/>
      <use xlink:href="#DejaVuSans-fc" x="47.333984"/>
      <use xlink:href="#DejaVuSans-72" x="110.712891"/>
      <use xlink:href="#DejaVuSans-6b" x="151.826172"/>
      <use xlink:href="#DejaVuSans-69" x="209.736328"/>
      <use xlink:href="#DejaVuSans-79" x="237.519531"/>
      <use xlink:href="#DejaVuSans-65" x="296.699219"/>
     </g>
    </g>
    <g id="line2d_102">
     <path d="M 931.807088 648.059363 
L 941.807088 648.059363 
L 951.807088 648.059363 
" style="fill: none; stroke: #f43d88; stroke-width: 1.5; stroke-linecap: square"/>
    </g>
    <g id="text_62">
     <!-- Ukraine -->
     <g transform="translate(959.807088 651.559363) scale(0.1 -0.1)">
      <use xlink:href="#DejaVuSans-55"/>
      <use xlink:href="#DejaVuSans-6b" x="73.193359"/>
      <use xlink:href="#DejaVuSans-72" x="131.103516"/>
      <use xlink:href="#DejaVuSans-61" x="172.216797"/>
      <use xlink:href="#DejaVuSans-69" x="233.496094"/>
      <use xlink:href="#DejaVuSans-6e" x="261.279297"/>
      <use xlink:href="#DejaVuSans-65" x="324.658203"/>
     </g>
    </g>
    <g id="line2d_103">
     <path d="M 931.807088 662.737488 
L 941.807088 662.737488 
L 951.807088 662.737488 
" style="fill: none; stroke: #f20c4b; stroke-width: 1.5; stroke-linecap: square"/>
    </g>
    <g id="text_63">
     <!-- United Kingdom of Great Britain and Northern Ireland -->
     <g transform="translate(959.807088 666.237488) scale(0.1 -0.1)">
      <use xlink:href="#DejaVuSans-55"/>
      <use xlink:href="#DejaVuSans-6e" x="73.193359"/>
      <use xlink:href="#DejaVuSans-69" x="136.572266"/>
      <use xlink:href="#DejaVuSans-74" x="164.355469"/>
      <use xlink:href="#DejaVuSans-65" x="203.564453"/>
      <use xlink:href="#DejaVuSans-64" x="265.087891"/>
      <use xlink:href="#DejaVuSans-20" x="328.564453"/>
      <use xlink:href="#DejaVuSans-4b" x="360.351562"/>
      <use xlink:href="#DejaVuSans-69" x="425.927734"/>
      <use xlink:href="#DejaVuSans-6e" x="453.710938"/>
      <use xlink:href="#DejaVuSans-67" x="517.089844"/>
      <use xlink:href="#DejaVuSans-64" x="580.566406"/>
      <use xlink:href="#DejaVuSans-6f" x="644.042969"/>
      <use xlink:href="#DejaVuSans-6d" x="705.224609"/>
      <use xlink:href="#DejaVuSans-20" x="802.636719"/>
      <use xlink:href="#DejaVuSans-6f" x="834.423828"/>
      <use xlink:href="#DejaVuSans-66" x="895.605469"/>
      <use xlink:href="#DejaVuSans-20" x="930.810547"/>
      <use xlink:href="#DejaVuSans-47" x="962.597656"/>
      <use xlink:href="#DejaVuSans-72" x="1040.087891"/>
      <use xlink:href="#DejaVuSans-65" x="1078.951172"/>
      <use xlink:href="#DejaVuSans-61" x="1140.474609"/>
      <use xlink:href="#DejaVuSans-74" x="1201.753906"/>
      <use xlink:href="#DejaVuSans-20" x="1240.962891"/>
      <use xlink:href="#DejaVuSans-42" x="1272.75"/>
      <use xlink:href="#DejaVuSans-72" x="1341.353516"/>
      <use xlink:href="#DejaVuSans-69" x="1382.466797"/>
      <use xlink:href="#DejaVuSans-74" x="1410.25"/>
      <use xlink:href="#DejaVuSans-61" x="1449.458984"/>
      <use xlink:href="#DejaVuSans-69" x="1510.738281"/>
      <use xlink:href="#DejaVuSans-6e" x="1538.521484"/>
      <use xlink:href="#DejaVuSans-20" x="1601.900391"/>
      <use xlink:href="#DejaVuSans-61" x="1633.6875"/>
      <use xlink:href="#DejaVuSans-6e" x="1694.966797"/>
      <use xlink:href="#DejaVuSans-64" x="1758.345703"/>
      <use xlink:href="#DejaVuSans-20" x="1821.822266"/>
      <use xlink:href="#DejaVuSans-4e" x="1853.609375"/>
      <use xlink:href="#DejaVuSans-6f" x="1928.414062"/>
      <use xlink:href="#DejaVuSans-72" x="1989.595703"/>
      <use xlink:href="#DejaVuSans-74" x="2030.708984"/>
      <use xlink:href="#DejaVuSans-68" x="2069.917969"/>
      <use xlink:href="#DejaVuSans-65" x="2133.296875"/>
      <use xlink:href="#DejaVuSans-72" x="2194.820312"/>
      <use xlink:href="#DejaVuSans-6e" x="2234.183594"/>
      <use xlink:href="#DejaVuSans-20" x="2297.5625"/>
      <use xlink:href="#DejaVuSans-49" x="2329.349609"/>
      <use xlink:href="#DejaVuSans-72" x="2358.841797"/>
      <use xlink:href="#DejaVuSans-65" x="2397.705078"/>
      <use xlink:href="#DejaVuSans-6c" x="2459.228516"/>
      <use xlink:href="#DejaVuSans-61" x="2487.011719"/>
      <use xlink:href="#DejaVuSans-6e" x="2548.291016"/>
      <use xlink:href="#DejaVuSans-64" x="2611.669922"/>
     </g>
    </g>
    <g id="line2d_104">
     <path d="M 931.807088 677.415613 
L 941.807088 677.415613 
L 951.807088 677.415613 
" style="fill: none; stroke: #f43d56; stroke-width: 1.5; stroke-linecap: square"/>
    </g>
    <g id="text_64">
     <!-- United States of America -->
     <g transform="translate(959.807088 680.915613) scale(0.1 -0.1)">
      <use xlink:href="#DejaVuSans-55"/>
      <use xlink:href="#DejaVuSans-6e" x="73.193359"/>
      <use xlink:href="#DejaVuSans-69" x="136.572266"/>
      <use xlink:href="#DejaVuSans-74" x="164.355469"/>
      <use xlink:href="#DejaVuSans-65" x="203.564453"/>
      <use xlink:href="#DejaVuSans-64" x="265.087891"/>
      <use xlink:href="#DejaVuSans-20" x="328.564453"/>
      <use xlink:href="#DejaVuSans-53" x="360.351562"/>
      <use xlink:href="#DejaVuSans-74" x="423.828125"/>
      <use xlink:href="#DejaVuSans-61" x="463.037109"/>
      <use xlink:href="#DejaVuSans-74" x="524.316406"/>
      <use xlink:href="#DejaVuSans-65" x="563.525391"/>
      <use xlink:href="#DejaVuSans-73" x="625.048828"/>
      <use xlink:href="#DejaVuSans-20" x="677.148438"/>
      <use xlink:href="#DejaVuSans-6f" x="708.935547"/>
      <use xlink:href="#DejaVuSans-66" x="770.117188"/>
      <use xlink:href="#DejaVuSans-20" x="805.322266"/>
      <use xlink:href="#DejaVuSans-41" x="837.109375"/>
      <use xlink:href="#DejaVuSans-6d" x="905.517578"/>
      <use xlink:href="#DejaVuSans-65" x="1002.929688"/>
      <use xlink:href="#DejaVuSans-72" x="1064.453125"/>
      <use xlink:href="#DejaVuSans-69" x="1105.566406"/>
      <use xlink:href="#DejaVuSans-63" x="1133.349609"/>
      <use xlink:href="#DejaVuSans-61" x="1188.330078"/>
     </g>
    </g>
   </g>
  </g>
 </g>
 <defs>
  <clipPath id="pe24314df4e">
   <rect x="53.578" y="33.1578" width="876.10488" height="452.6496"/>
  </clipPath>
 </defs>
</svg>
